%TF.GenerationSoftware,KiCad,Pcbnew,10.0.6*%
%TF.CreationDate,2026-10-10T16:24:40+02:00*%
%TF.ProjectId,esp_32_board,6573705f-3332-45f6-926f-6172642e6b69,rev?*%
%TF.SameCoordinates,Original*%
%TF.FileFunction,Soldermask,Top*%
%TF.FilePolarity,Negative*%
%FSLAX46Y46*%
G04 Gerber Fmt 4.6, Leading zero omitted, Abs format (unit mm)*
G04 Created by KiCad (PCBNEW 10.0.6) date 2026-10-10 16:24:40*
%MOMM*%
%LPD*%
G01*
G04 APERTURE LIST*
G04 Aperture macros list*
%AMRoundRect*
0 Rectangle with rounded corners*
0 $1 Rounding radius*
0 $2 $3 $4 $5 $6 $7 $8 $9 X,Y pos of 4 corners*
0 Add a 4 corners polygon primitive as box body*
4,1,4,$2,$3,$4,$5,$6,$7,$8,$9,$2,$3,0*
0 Add four circle primitives for the rounded corners*
1,1,$1+$1,$2,$3*
1,1,$1+$1,$4,$5*
1,1,$1+$1,$6,$7*
1,1,$1+$1,$8,$9*
0 Add four rect primitives between the rounded corners*
20,1,$1+$1,$2,$3,$4,$5,0*
20,1,$1+$1,$4,$5,$6,$7,0*
20,1,$1+$1,$6,$7,$8,$9,0*
20,1,$1+$1,$8,$9,$2,$3,0*%
G04 Aperture macros list end*
%ADD10RoundRect,0.250000X-0.545000X-0.445000X0.545000X-0.445000X0.545000X0.445000X-0.545000X0.445000X0*%
%ADD11R,1.700000X1.700000*%
%ADD12C,1.700000*%
%ADD13RoundRect,0.250000X-0.337500X-0.475000X0.337500X-0.475000X0.337500X0.475000X-0.337500X0.475000X0*%
%ADD14RoundRect,0.250000X-0.445000X0.545000X-0.445000X-0.545000X0.445000X-0.545000X0.445000X0.545000X0*%
%ADD15C,0.650000*%
%ADD16O,2.400000X0.900000*%
%ADD17O,1.700000X0.900000*%
%ADD18RoundRect,0.250000X0.350000X0.450000X-0.350000X0.450000X-0.350000X-0.450000X0.350000X-0.450000X0*%
%ADD19R,1.400000X1.600000*%
%ADD20RoundRect,0.250000X-0.350000X-0.450000X0.350000X-0.450000X0.350000X0.450000X-0.350000X0.450000X0*%
%ADD21RoundRect,0.250000X-0.325000X-0.450000X0.325000X-0.450000X0.325000X0.450000X-0.325000X0.450000X0*%
%ADD22R,0.900000X1.500000*%
%ADD23R,1.500000X0.900000*%
%ADD24C,0.700000*%
%ADD25R,3.900000X3.900000*%
%ADD26R,1.600000X1.400000*%
%ADD27RoundRect,0.150000X0.150000X-0.512500X0.150000X0.512500X-0.150000X0.512500X-0.150000X-0.512500X0*%
%ADD28RoundRect,0.375000X-0.625000X-0.375000X0.625000X-0.375000X0.625000X0.375000X-0.625000X0.375000X0*%
%ADD29RoundRect,0.500000X-0.500000X-1.400000X0.500000X-1.400000X0.500000X1.400000X-0.500000X1.400000X0*%
G04 APERTURE END LIST*
D10*
%TO.C,C9*%
X147250000Y-109120000D03*
X150130000Y-109120000D03*
%TD*%
D11*
%TO.C,J5*%
X180816250Y-132159375D03*
D12*
X183356250Y-132159375D03*
X185896250Y-132159375D03*
X188436250Y-132159375D03*
X190976250Y-132159375D03*
X193516250Y-132159375D03*
%TD*%
D13*
%TO.C,C5*%
X154362500Y-110650000D03*
X156437500Y-110650000D03*
%TD*%
D11*
%TO.C,J3*%
X162440000Y-121120000D03*
D12*
X159900000Y-121120000D03*
X157360000Y-121120000D03*
X154820000Y-121120000D03*
%TD*%
D14*
%TO.C,C1(Tantalum)1*%
X158180000Y-103460000D03*
X158180000Y-106340000D03*
%TD*%
D15*
%TO.C,J1*%
X136037500Y-112365625D03*
X136037500Y-113215625D03*
X136037500Y-114065625D03*
X136037500Y-114915625D03*
X136037500Y-115765625D03*
X136037500Y-116615625D03*
X136037500Y-117465625D03*
X136037500Y-118315625D03*
X134687500Y-118315625D03*
X134687500Y-117465625D03*
X134687500Y-116615625D03*
X134687500Y-115765625D03*
X134687500Y-114915625D03*
X134687500Y-114065625D03*
X134687500Y-113215625D03*
X134687500Y-112365625D03*
D16*
X135057500Y-111015625D03*
D17*
X131677500Y-111015625D03*
D16*
X135057500Y-119665625D03*
D17*
X131677500Y-119665625D03*
%TD*%
D11*
%TO.C,J6*%
X180816250Y-102393750D03*
D12*
X183356250Y-102393750D03*
X185896250Y-102393750D03*
X188436250Y-102393750D03*
X190976250Y-102393750D03*
X193516250Y-102393750D03*
%TD*%
D18*
%TO.C,R10*%
X159870000Y-127990000D03*
X157870000Y-127990000D03*
%TD*%
D19*
%TO.C,SW3*%
X172980000Y-118830000D03*
X172980000Y-126030000D03*
X169980000Y-118830000D03*
X169980000Y-126030000D03*
%TD*%
D20*
%TO.C,R1*%
X138790000Y-109820000D03*
X140790000Y-109820000D03*
%TD*%
D21*
%TO.C,D3*%
X153680000Y-127940000D03*
X155730000Y-127940000D03*
%TD*%
D22*
%TO.C,U5*%
X194690000Y-109490000D03*
X193420000Y-109490000D03*
X192150000Y-109490000D03*
X190880000Y-109490000D03*
X189610000Y-109490000D03*
X188340000Y-109490000D03*
X187070000Y-109490000D03*
X185800000Y-109490000D03*
X184530000Y-109490000D03*
X183260000Y-109490000D03*
X181990000Y-109490000D03*
X180720000Y-109490000D03*
X179450000Y-109490000D03*
X178180000Y-109490000D03*
D23*
X176930000Y-111255000D03*
X176930000Y-112525000D03*
X176930000Y-113795000D03*
X176930000Y-115065000D03*
X176930000Y-116335000D03*
X176930000Y-117605000D03*
X176930000Y-118875000D03*
X176930000Y-120145000D03*
X176930000Y-121415000D03*
X176930000Y-122685000D03*
X176930000Y-123955000D03*
X176930000Y-125225000D03*
D22*
X178180000Y-126990000D03*
X179450000Y-126990000D03*
X180720000Y-126990000D03*
X181990000Y-126990000D03*
X183260000Y-126990000D03*
X184530000Y-126990000D03*
X185800000Y-126990000D03*
X187070000Y-126990000D03*
X188340000Y-126990000D03*
X189610000Y-126990000D03*
X190880000Y-126990000D03*
X192150000Y-126990000D03*
X193420000Y-126990000D03*
X194690000Y-126990000D03*
D24*
X187670000Y-115340000D03*
X186270000Y-115340000D03*
X188370000Y-116040000D03*
X186970000Y-116040000D03*
X185570000Y-116040000D03*
X187670000Y-116740000D03*
D25*
X186970000Y-116740000D03*
D24*
X186270000Y-116740000D03*
X188370000Y-117440000D03*
X186970000Y-117440000D03*
X185570000Y-117440000D03*
X187670000Y-118140000D03*
X186270000Y-118140000D03*
%TD*%
D21*
%TO.C,D2*%
X138895000Y-106080000D03*
X140945000Y-106080000D03*
%TD*%
D11*
%TO.C,J4*%
X163830000Y-132159375D03*
D12*
X166370000Y-132159375D03*
X168910000Y-132159375D03*
X171450000Y-132159375D03*
X173990000Y-132159375D03*
X176530000Y-132159375D03*
%TD*%
D13*
%TO.C,C6*%
X165442500Y-126180000D03*
X167517500Y-126180000D03*
%TD*%
D26*
%TO.C,SW2*%
X166010000Y-112400000D03*
X158810000Y-112400000D03*
X166010000Y-109400000D03*
X158810000Y-109400000D03*
%TD*%
D11*
%TO.C,J2*%
X143340000Y-121120000D03*
D12*
X145880000Y-121120000D03*
X148420000Y-121120000D03*
X150960000Y-121120000D03*
%TD*%
D20*
%TO.C,R9*%
X166570000Y-106700000D03*
X168570000Y-106700000D03*
%TD*%
D27*
%TO.C,U2*%
X143930000Y-115265000D03*
X144880000Y-115265000D03*
X145830000Y-115265000D03*
X145830000Y-112990000D03*
X144880000Y-112990000D03*
X143930000Y-112990000D03*
%TD*%
D10*
%TO.C,C1(Tantalum)2*%
X191440000Y-105270000D03*
X194320000Y-105270000D03*
%TD*%
D18*
%TO.C,R8*%
X145070000Y-106080000D03*
X143070000Y-106080000D03*
%TD*%
D20*
%TO.C,R2*%
X134060000Y-122550000D03*
X136060000Y-122550000D03*
%TD*%
D11*
%TO.C,J8*%
X163988750Y-102393750D03*
D12*
X166528750Y-102393750D03*
X169068750Y-102393750D03*
X171608750Y-102393750D03*
X174148750Y-102393750D03*
X176688750Y-102393750D03*
%TD*%
D28*
%TO.C,U4*%
X148810000Y-101107500D03*
X148810000Y-103407500D03*
D29*
X155110000Y-103407500D03*
D28*
X148810000Y-105707500D03*
%TD*%
M02*
