%TF.GenerationSoftware,KiCad,Pcbnew,10.0.6*%
%TF.CreationDate,2026-10-10T16:24:40+02:00*%
%TF.ProjectId,esp_32_board,6573705f-3332-45f6-926f-6172642e6b69,rev?*%
%TF.SameCoordinates,Original*%
%TF.FileFunction,Soldermask,Bot*%
%TF.FilePolarity,Negative*%
%FSLAX46Y46*%
G04 Gerber Fmt 4.6, Leading zero omitted, Abs format (unit mm)*
G04 Created by KiCad (PCBNEW 10.0.6) date 2026-10-10 16:24:40*
%MOMM*%
%LPD*%
G01*
G04 APERTURE LIST*
%ADD10R,1.700000X1.700000*%
%ADD11C,1.700000*%
%ADD12C,0.650000*%
%ADD13O,2.400000X0.900000*%
%ADD14O,1.700000X0.900000*%
G04 APERTURE END LIST*
D10*
%TO.C,J5*%
X180816250Y-132159375D03*
D11*
X183356250Y-132159375D03*
X185896250Y-132159375D03*
X188436250Y-132159375D03*
X190976250Y-132159375D03*
X193516250Y-132159375D03*
%TD*%
D10*
%TO.C,J3*%
X162440000Y-121120000D03*
D11*
X159900000Y-121120000D03*
X157360000Y-121120000D03*
X154820000Y-121120000D03*
%TD*%
D12*
%TO.C,J1*%
X136037500Y-112365625D03*
X136037500Y-113215625D03*
X136037500Y-114065625D03*
X136037500Y-114915625D03*
X136037500Y-115765625D03*
X136037500Y-116615625D03*
X136037500Y-117465625D03*
X136037500Y-118315625D03*
X134687500Y-118315625D03*
X134687500Y-117465625D03*
X134687500Y-116615625D03*
X134687500Y-115765625D03*
X134687500Y-114915625D03*
X134687500Y-114065625D03*
X134687500Y-113215625D03*
X134687500Y-112365625D03*
D13*
X135057500Y-111015625D03*
D14*
X131677500Y-111015625D03*
D13*
X135057500Y-119665625D03*
D14*
X131677500Y-119665625D03*
%TD*%
D10*
%TO.C,J6*%
X180816250Y-102393750D03*
D11*
X183356250Y-102393750D03*
X185896250Y-102393750D03*
X188436250Y-102393750D03*
X190976250Y-102393750D03*
X193516250Y-102393750D03*
%TD*%
D10*
%TO.C,J4*%
X163830000Y-132159375D03*
D11*
X166370000Y-132159375D03*
X168910000Y-132159375D03*
X171450000Y-132159375D03*
X173990000Y-132159375D03*
X176530000Y-132159375D03*
%TD*%
D10*
%TO.C,J2*%
X143340000Y-121120000D03*
D11*
X145880000Y-121120000D03*
X148420000Y-121120000D03*
X150960000Y-121120000D03*
%TD*%
D10*
%TO.C,J8*%
X163988750Y-102393750D03*
D11*
X166528750Y-102393750D03*
X169068750Y-102393750D03*
X171608750Y-102393750D03*
X174148750Y-102393750D03*
X176688750Y-102393750D03*
%TD*%
M02*
