%TF.GenerationSoftware,KiCad,Pcbnew,10.0.6*%
%TF.CreationDate,2026-10-10T16:24:40+02:00*%
%TF.ProjectId,esp_32_board,6573705f-3332-45f6-926f-6172642e6b69,rev?*%
%TF.SameCoordinates,Original*%
%TF.FileFunction,Copper,L1,Top*%
%TF.FilePolarity,Positive*%
%FSLAX46Y46*%
G04 Gerber Fmt 4.6, Leading zero omitted, Abs format (unit mm)*
G04 Created by KiCad (PCBNEW 10.0.6) date 2026-10-10 16:24:40*
%MOMM*%
%LPD*%
G01*
G04 APERTURE LIST*
G04 Aperture macros list*
%AMRoundRect*
0 Rectangle with rounded corners*
0 $1 Rounding radius*
0 $2 $3 $4 $5 $6 $7 $8 $9 X,Y pos of 4 corners*
0 Add a 4 corners polygon primitive as box body*
4,1,4,$2,$3,$4,$5,$6,$7,$8,$9,$2,$3,0*
0 Add four circle primitives for the rounded corners*
1,1,$1+$1,$2,$3*
1,1,$1+$1,$4,$5*
1,1,$1+$1,$6,$7*
1,1,$1+$1,$8,$9*
0 Add four rect primitives between the rounded corners*
20,1,$1+$1,$2,$3,$4,$5,0*
20,1,$1+$1,$4,$5,$6,$7,0*
20,1,$1+$1,$6,$7,$8,$9,0*
20,1,$1+$1,$8,$9,$2,$3,0*%
G04 Aperture macros list end*
%TA.AperFunction,SMDPad,CuDef*%
%ADD10RoundRect,0.250000X-0.545000X-0.445000X0.545000X-0.445000X0.545000X0.445000X-0.545000X0.445000X0*%
%TD*%
%TA.AperFunction,ComponentPad*%
%ADD11R,1.700000X1.700000*%
%TD*%
%TA.AperFunction,ComponentPad*%
%ADD12C,1.700000*%
%TD*%
%TA.AperFunction,SMDPad,CuDef*%
%ADD13RoundRect,0.250000X-0.337500X-0.475000X0.337500X-0.475000X0.337500X0.475000X-0.337500X0.475000X0*%
%TD*%
%TA.AperFunction,SMDPad,CuDef*%
%ADD14RoundRect,0.250000X-0.445000X0.545000X-0.445000X-0.545000X0.445000X-0.545000X0.445000X0.545000X0*%
%TD*%
%TA.AperFunction,ComponentPad*%
%ADD15C,0.650000*%
%TD*%
%TA.AperFunction,ComponentPad*%
%ADD16O,2.400000X0.900000*%
%TD*%
%TA.AperFunction,ComponentPad*%
%ADD17O,1.700000X0.900000*%
%TD*%
%TA.AperFunction,SMDPad,CuDef*%
%ADD18RoundRect,0.250000X0.350000X0.450000X-0.350000X0.450000X-0.350000X-0.450000X0.350000X-0.450000X0*%
%TD*%
%TA.AperFunction,SMDPad,CuDef*%
%ADD19R,1.400000X1.600000*%
%TD*%
%TA.AperFunction,SMDPad,CuDef*%
%ADD20RoundRect,0.250000X-0.350000X-0.450000X0.350000X-0.450000X0.350000X0.450000X-0.350000X0.450000X0*%
%TD*%
%TA.AperFunction,SMDPad,CuDef*%
%ADD21RoundRect,0.250000X-0.325000X-0.450000X0.325000X-0.450000X0.325000X0.450000X-0.325000X0.450000X0*%
%TD*%
%TA.AperFunction,SMDPad,CuDef*%
%ADD22R,0.900000X1.500000*%
%TD*%
%TA.AperFunction,SMDPad,CuDef*%
%ADD23R,1.500000X0.900000*%
%TD*%
%TA.AperFunction,HeatsinkPad*%
%ADD24C,0.700000*%
%TD*%
%TA.AperFunction,HeatsinkPad*%
%ADD25R,3.900000X3.900000*%
%TD*%
%TA.AperFunction,SMDPad,CuDef*%
%ADD26R,1.600000X1.400000*%
%TD*%
%TA.AperFunction,SMDPad,CuDef*%
%ADD27RoundRect,0.150000X0.150000X-0.512500X0.150000X0.512500X-0.150000X0.512500X-0.150000X-0.512500X0*%
%TD*%
%TA.AperFunction,SMDPad,CuDef*%
%ADD28RoundRect,0.375000X-0.625000X-0.375000X0.625000X-0.375000X0.625000X0.375000X-0.625000X0.375000X0*%
%TD*%
%TA.AperFunction,SMDPad,CuDef*%
%ADD29RoundRect,0.500000X-0.500000X-1.400000X0.500000X-1.400000X0.500000X1.400000X-0.500000X1.400000X0*%
%TD*%
%TA.AperFunction,ViaPad*%
%ADD30C,0.600000*%
%TD*%
%TA.AperFunction,Conductor*%
%ADD31C,0.350000*%
%TD*%
%TA.AperFunction,Conductor*%
%ADD32C,0.200000*%
%TD*%
%TA.AperFunction,Conductor*%
%ADD33C,0.300000*%
%TD*%
G04 APERTURE END LIST*
D10*
%TO.P,C9,1*%
%TO.N,VBUS*%
X147250000Y-109120000D03*
%TO.P,C9,2*%
%TO.N,GND*%
X150130000Y-109120000D03*
%TD*%
D11*
%TO.P,J5,1,Pin_1_1*%
%TO.N,/IO41*%
X180816250Y-132159375D03*
D12*
%TO.P,J5,2,Pin_2_2*%
%TO.N,/IO42*%
X183356250Y-132159375D03*
%TO.P,J5,3,Pin_3_3*%
%TO.N,/RXD*%
X185896250Y-132159375D03*
%TO.P,J5,4,Pin_4_4*%
%TO.N,/TXD*%
X188436250Y-132159375D03*
%TO.P,J5,5,Pin_5_5*%
%TO.N,/IO2*%
X190976250Y-132159375D03*
%TO.P,J5,6,Pin_6_6*%
%TO.N,/IO1*%
X193516250Y-132159375D03*
%TD*%
D13*
%TO.P,C5,1*%
%TO.N,GND*%
X154362500Y-110650000D03*
%TO.P,C5,2*%
%TO.N,Net-(U5-EN)*%
X156437500Y-110650000D03*
%TD*%
D11*
%TO.P,J3,1,Pin_1_1*%
%TO.N,/IO11*%
X162440000Y-121120000D03*
D12*
%TO.P,J3,2,Pin_2_2*%
%TO.N,/IO10*%
X159900000Y-121120000D03*
%TO.P,J3,3,Pin_3_3*%
%TO.N,/IO9*%
X157360000Y-121120000D03*
%TO.P,J3,4,Pin_4_4*%
%TO.N,/IO46*%
X154820000Y-121120000D03*
%TD*%
D14*
%TO.P,C1(Tantalum)1,1*%
%TO.N,+3.3V*%
X158180000Y-103460000D03*
%TO.P,C1(Tantalum)1,2*%
%TO.N,GND*%
X158180000Y-106340000D03*
%TD*%
D15*
%TO.P,J1,A1,GND_A1*%
%TO.N,GND*%
X136037500Y-112365625D03*
%TO.P,J1,A4,VBUS_A4*%
%TO.N,VBUS*%
X136037500Y-113215625D03*
%TO.P,J1,A5,CC1_A5*%
%TO.N,Net-(J1-CC1)*%
X136037500Y-114065625D03*
%TO.P,J1,A6,D+_A6*%
%TO.N,/RAW_D+*%
X136037500Y-114915625D03*
%TO.P,J1,A7,D-_A7*%
%TO.N,/RAW_D-*%
X136037500Y-115765625D03*
%TO.P,J1,A8,SBU1_A8*%
%TO.N,unconnected-(J1-SBU1-PadA8)*%
X136037500Y-116615625D03*
%TO.P,J1,A9,VBUS_A9*%
%TO.N,VBUS*%
X136037500Y-117465625D03*
%TO.P,J1,A12,GND_A12*%
%TO.N,GND*%
X136037500Y-118315625D03*
%TO.P,J1,B1,GND_B1*%
X134687500Y-118315625D03*
%TO.P,J1,B4,VBUS_B4*%
%TO.N,VBUS*%
X134687500Y-117465625D03*
%TO.P,J1,B5,CC2_B5*%
%TO.N,Net-(J1-CC2)*%
X134687500Y-116615625D03*
%TO.P,J1,B6,D+_B6*%
%TO.N,/RAW_D+*%
X134687500Y-115765625D03*
%TO.P,J1,B7,D-_B7*%
%TO.N,/RAW_D-*%
X134687500Y-114915625D03*
%TO.P,J1,B8,SBU2_B8*%
%TO.N,unconnected-(J1-SBU2-PadB8)*%
X134687500Y-114065625D03*
%TO.P,J1,B9,VBUS_B9*%
%TO.N,VBUS*%
X134687500Y-113215625D03*
%TO.P,J1,B12,GND_B12*%
%TO.N,GND*%
X134687500Y-112365625D03*
D16*
%TO.P,J1,SH,SHIELD_SH*%
X135057500Y-111015625D03*
D17*
X131677500Y-111015625D03*
D16*
X135057500Y-119665625D03*
D17*
X131677500Y-119665625D03*
%TD*%
D11*
%TO.P,J6,1,Pin_1_1*%
%TO.N,/IO15*%
X180816250Y-102393750D03*
D12*
%TO.P,J6,2,Pin_2_2*%
%TO.N,/IO7*%
X183356250Y-102393750D03*
%TO.P,J6,3,Pin_3_3*%
%TO.N,/IO6*%
X185896250Y-102393750D03*
%TO.P,J6,4,Pin_4_4*%
%TO.N,/IO5*%
X188436250Y-102393750D03*
%TO.P,J6,5,Pin_5_5*%
%TO.N,/IO4*%
X190976250Y-102393750D03*
%TO.P,J6,6,Pin_6_6*%
%TO.N,GND*%
X193516250Y-102393750D03*
%TD*%
D18*
%TO.P,R10,1*%
%TO.N,Net-(U5-IO48)*%
X159870000Y-127990000D03*
%TO.P,R10,2*%
%TO.N,Net-(D3-A)*%
X157870000Y-127990000D03*
%TD*%
D19*
%TO.P,SW3,1,1_1*%
%TO.N,GND*%
X172980000Y-118830000D03*
X172980000Y-126030000D03*
%TO.P,SW3,2,2_2*%
%TO.N,Net-(U5-IO0)*%
X169980000Y-118830000D03*
X169980000Y-126030000D03*
%TD*%
D20*
%TO.P,R1,1*%
%TO.N,Net-(J1-CC1)*%
X138790000Y-109820000D03*
%TO.P,R1,2*%
%TO.N,GND*%
X140790000Y-109820000D03*
%TD*%
D21*
%TO.P,D3,1,K_1*%
%TO.N,GND*%
X153680000Y-127940000D03*
%TO.P,D3,2,A_2*%
%TO.N,Net-(D3-A)*%
X155730000Y-127940000D03*
%TD*%
D22*
%TO.P,U5,1,GND_1*%
%TO.N,GND*%
X194690000Y-109490000D03*
%TO.P,U5,2,3V3_2*%
%TO.N,+3.3V*%
X193420000Y-109490000D03*
%TO.P,U5,3,EN_3*%
%TO.N,Net-(U5-EN)*%
X192150000Y-109490000D03*
%TO.P,U5,4,IO4_4*%
%TO.N,/IO4*%
X190880000Y-109490000D03*
%TO.P,U5,5,IO5_5*%
%TO.N,/IO5*%
X189610000Y-109490000D03*
%TO.P,U5,6,IO6_6*%
%TO.N,/IO6*%
X188340000Y-109490000D03*
%TO.P,U5,7,IO7_7*%
%TO.N,/IO7*%
X187070000Y-109490000D03*
%TO.P,U5,8,IO15_8*%
%TO.N,/IO15*%
X185800000Y-109490000D03*
%TO.P,U5,9,IO16_9*%
%TO.N,/IO16*%
X184530000Y-109490000D03*
%TO.P,U5,10,IO17_10*%
%TO.N,/IO17*%
X183260000Y-109490000D03*
%TO.P,U5,11,IO18_11*%
%TO.N,/IO18*%
X181990000Y-109490000D03*
%TO.P,U5,12,IO8_12*%
%TO.N,/IO8*%
X180720000Y-109490000D03*
%TO.P,U5,13,USB_D-_13*%
%TO.N,/D-*%
X179450000Y-109490000D03*
%TO.P,U5,14,USB_D+_14*%
%TO.N,/D+*%
X178180000Y-109490000D03*
D23*
%TO.P,U5,15,IO3_15*%
%TO.N,unconnected-(U5-IO3-Pad15)*%
X176930000Y-111255000D03*
%TO.P,U5,16,IO46_16*%
%TO.N,/IO46*%
X176930000Y-112525000D03*
%TO.P,U5,17,IO9_17*%
%TO.N,/IO9*%
X176930000Y-113795000D03*
%TO.P,U5,18,IO10_18*%
%TO.N,/IO10*%
X176930000Y-115065000D03*
%TO.P,U5,19,IO11_19*%
%TO.N,/IO11*%
X176930000Y-116335000D03*
%TO.P,U5,20,IO12_20*%
%TO.N,/IO12*%
X176930000Y-117605000D03*
%TO.P,U5,21,IO13_21*%
%TO.N,/IO13*%
X176930000Y-118875000D03*
%TO.P,U5,22,IO14_22*%
%TO.N,/IO14*%
X176930000Y-120145000D03*
%TO.P,U5,23,IO21_23*%
%TO.N,/IO21*%
X176930000Y-121415000D03*
%TO.P,U5,24,IO47_24*%
%TO.N,/IO47*%
X176930000Y-122685000D03*
%TO.P,U5,25,IO48_25*%
%TO.N,Net-(U5-IO48)*%
X176930000Y-123955000D03*
%TO.P,U5,26,IO45_26*%
%TO.N,/IO45*%
X176930000Y-125225000D03*
D22*
%TO.P,U5,27,IO0_27*%
%TO.N,Net-(U5-IO0)*%
X178180000Y-126990000D03*
%TO.P,U5,28,IO35_28*%
%TO.N,/IO35*%
X179450000Y-126990000D03*
%TO.P,U5,29,IO36_29*%
%TO.N,/IO36*%
X180720000Y-126990000D03*
%TO.P,U5,30,IO37_30*%
%TO.N,/IO37*%
X181990000Y-126990000D03*
%TO.P,U5,31,IO38_31*%
%TO.N,/IO38*%
X183260000Y-126990000D03*
%TO.P,U5,32,IO39_32*%
%TO.N,/IO39*%
X184530000Y-126990000D03*
%TO.P,U5,33,IO40_33*%
%TO.N,/IO40*%
X185800000Y-126990000D03*
%TO.P,U5,34,IO41_34*%
%TO.N,/IO41*%
X187070000Y-126990000D03*
%TO.P,U5,35,IO42_35*%
%TO.N,/IO42*%
X188340000Y-126990000D03*
%TO.P,U5,36,RXD0_36*%
%TO.N,/RXD*%
X189610000Y-126990000D03*
%TO.P,U5,37,TXD0_37*%
%TO.N,/TXD*%
X190880000Y-126990000D03*
%TO.P,U5,38,IO2_38*%
%TO.N,/IO2*%
X192150000Y-126990000D03*
%TO.P,U5,39,IO1_39*%
%TO.N,/IO1*%
X193420000Y-126990000D03*
%TO.P,U5,40,GND_40*%
%TO.N,GND*%
X194690000Y-126990000D03*
D24*
%TO.P,U5,41,GND_41*%
X187670000Y-115340000D03*
X186270000Y-115340000D03*
X188370000Y-116040000D03*
X186970000Y-116040000D03*
X185570000Y-116040000D03*
X187670000Y-116740000D03*
D25*
X186970000Y-116740000D03*
D24*
X186270000Y-116740000D03*
X188370000Y-117440000D03*
X186970000Y-117440000D03*
X185570000Y-117440000D03*
X187670000Y-118140000D03*
X186270000Y-118140000D03*
%TD*%
D21*
%TO.P,D2,1,K_1*%
%TO.N,GND*%
X138895000Y-106080000D03*
%TO.P,D2,2,A_2*%
%TO.N,Net-(D2-A)*%
X140945000Y-106080000D03*
%TD*%
D11*
%TO.P,J4,1,Pin_1_1*%
%TO.N,/IO35*%
X163830000Y-132159375D03*
D12*
%TO.P,J4,2,Pin_2_2*%
%TO.N,/IO36*%
X166370000Y-132159375D03*
%TO.P,J4,3,Pin_3_3*%
%TO.N,/IO37*%
X168910000Y-132159375D03*
%TO.P,J4,4,Pin_4_4*%
%TO.N,/IO38*%
X171450000Y-132159375D03*
%TO.P,J4,5,Pin_5_5*%
%TO.N,/IO39*%
X173990000Y-132159375D03*
%TO.P,J4,6,Pin_6_6*%
%TO.N,/IO40*%
X176530000Y-132159375D03*
%TD*%
D13*
%TO.P,C6,1*%
%TO.N,GND*%
X165442500Y-126180000D03*
%TO.P,C6,2*%
%TO.N,Net-(U5-IO0)*%
X167517500Y-126180000D03*
%TD*%
D26*
%TO.P,SW2,1,1_1*%
%TO.N,GND*%
X166010000Y-112400000D03*
X158810000Y-112400000D03*
%TO.P,SW2,2,2_2*%
%TO.N,Net-(U5-EN)*%
X166010000Y-109400000D03*
X158810000Y-109400000D03*
%TD*%
D11*
%TO.P,J2,1,Pin_1_1*%
%TO.N,GND*%
X143340000Y-121120000D03*
D12*
%TO.P,J2,2,Pin_2_2*%
%TO.N,VBUS*%
X145880000Y-121120000D03*
%TO.P,J2,3,Pin_3_3*%
%TO.N,/IO47*%
X148420000Y-121120000D03*
%TO.P,J2,4,Pin_4_4*%
%TO.N,/IO21*%
X150960000Y-121120000D03*
%TD*%
D20*
%TO.P,R9,1*%
%TO.N,+3.3V*%
X166570000Y-106700000D03*
%TO.P,R9,2*%
%TO.N,Net-(U5-EN)*%
X168570000Y-106700000D03*
%TD*%
D27*
%TO.P,U2,1,I/O1_1*%
%TO.N,/RAW_D+*%
X143930000Y-115265000D03*
%TO.P,U2,2,GND_2*%
%TO.N,GND*%
X144880000Y-115265000D03*
%TO.P,U2,3,I/O2_3*%
%TO.N,/RAW_D-*%
X145830000Y-115265000D03*
%TO.P,U2,4,I/O2_4*%
%TO.N,/D-*%
X145830000Y-112990000D03*
%TO.P,U2,5,VBUS_5*%
%TO.N,VBUS*%
X144880000Y-112990000D03*
%TO.P,U2,6,I/O1_6*%
%TO.N,/D+*%
X143930000Y-112990000D03*
%TD*%
D10*
%TO.P,C1(Tantalum)2,1*%
%TO.N,GND*%
X191440000Y-105270000D03*
%TO.P,C1(Tantalum)2,2*%
%TO.N,+3.3V*%
X194320000Y-105270000D03*
%TD*%
D18*
%TO.P,R8,1*%
%TO.N,+3.3V*%
X145070000Y-106080000D03*
%TO.P,R8,2*%
%TO.N,Net-(D2-A)*%
X143070000Y-106080000D03*
%TD*%
D20*
%TO.P,R2,1*%
%TO.N,Net-(J1-CC2)*%
X134060000Y-122550000D03*
%TO.P,R2,2*%
%TO.N,GND*%
X136060000Y-122550000D03*
%TD*%
D11*
%TO.P,J8,1,Pin_1_1*%
%TO.N,+3.3V*%
X163988750Y-102393750D03*
D12*
%TO.P,J8,2,Pin_2_2*%
%TO.N,VBUS*%
X166528750Y-102393750D03*
%TO.P,J8,3,Pin_3_3*%
%TO.N,/IO8*%
X169068750Y-102393750D03*
%TO.P,J8,4,Pin_4_4*%
%TO.N,/IO18*%
X171608750Y-102393750D03*
%TO.P,J8,5,Pin_5_5*%
%TO.N,/IO17*%
X174148750Y-102393750D03*
%TO.P,J8,6,Pin_6_6*%
%TO.N,/IO16*%
X176688750Y-102393750D03*
%TD*%
D28*
%TO.P,U4,1,GND_1*%
%TO.N,GND*%
X148810000Y-101107500D03*
%TO.P,U4,2,VO_2*%
%TO.N,+3.3V*%
X148810000Y-103407500D03*
D29*
X155110000Y-103407500D03*
D28*
%TO.P,U4,3,VI_3*%
%TO.N,VBUS*%
X148810000Y-105707500D03*
%TD*%
D30*
%TO.N,GND*%
X154470000Y-115780000D03*
X170310000Y-128080000D03*
X156040000Y-106550000D03*
X171590000Y-113590000D03*
X140810000Y-111740000D03*
X169310000Y-111330000D03*
X142470000Y-114330000D03*
X148650000Y-113040000D03*
X171430000Y-125610000D03*
X148620000Y-115840000D03*
X175660000Y-110200000D03*
X154600000Y-113120000D03*
%TO.N,Net-(U5-EN)*%
X173920000Y-106370000D03*
X192260000Y-108420000D03*
%TO.N,Net-(U5-IO48)*%
X175650000Y-124180000D03*
X161080000Y-125120000D03*
%TO.N,/IO21*%
X175590000Y-121760000D03*
%TO.N,/IO47*%
X175580000Y-123130000D03*
%TD*%
%TO.N,VBUS*%
D31*
X144880000Y-109995000D02*
X144880000Y-112990000D01*
X146455000Y-109120000D02*
X147250000Y-109120000D01*
X134687500Y-113215625D02*
X136037500Y-113215625D01*
X154520000Y-107920000D02*
X161002500Y-107920000D01*
X145880000Y-120650000D02*
X145880000Y-121120000D01*
X144280000Y-119050000D02*
X145880000Y-120650000D01*
X145660000Y-108745000D02*
X147215000Y-110300000D01*
X143630000Y-108745000D02*
X145660000Y-108745000D01*
X135411399Y-108745000D02*
X142410000Y-108745000D01*
X137145625Y-117465625D02*
X138730000Y-119050000D01*
X134687500Y-113215625D02*
X134547550Y-113215625D01*
X133482500Y-110673899D02*
X135411399Y-108745000D01*
X138730000Y-119050000D02*
X144280000Y-119050000D01*
X134547550Y-113215625D02*
X133482500Y-112150575D01*
X142410000Y-108745000D02*
X143630000Y-108745000D01*
X148720000Y-107650000D02*
X147250000Y-109120000D01*
X147215000Y-110300000D02*
X152140000Y-110300000D01*
X148720000Y-105357500D02*
X148720000Y-107650000D01*
X146875000Y-108745000D02*
X147250000Y-109120000D01*
X133482500Y-112150575D02*
X133482500Y-110673899D01*
X145660000Y-108745000D02*
X146875000Y-108745000D01*
X161002500Y-107920000D02*
X166528750Y-102393750D01*
X134687500Y-117465625D02*
X136037500Y-117465625D01*
X152140000Y-110300000D02*
X154520000Y-107920000D01*
X143630000Y-108745000D02*
X144880000Y-109995000D01*
X137145625Y-117465625D02*
X136037500Y-117465625D01*
%TO.N,GND*%
D32*
X142470000Y-114330000D02*
X142497500Y-114302500D01*
D33*
X144282500Y-114302500D02*
X144880000Y-114900000D01*
D32*
X144880000Y-114900000D02*
X144880000Y-115265000D01*
D33*
X142497500Y-114302500D02*
X144282500Y-114302500D01*
D32*
X140790000Y-111720000D02*
X140810000Y-111740000D01*
X140790000Y-109820000D02*
X140790000Y-111720000D01*
%TO.N,/IO41*%
X185830000Y-129930000D02*
X187160000Y-128600000D01*
X187160000Y-128600000D02*
X187160000Y-127290000D01*
X181670625Y-132159375D02*
X183900000Y-129930000D01*
X183900000Y-129930000D02*
X185830000Y-129930000D01*
X180816250Y-132159375D02*
X181670625Y-132159375D01*
%TO.N,/IO42*%
X188430000Y-128890000D02*
X188430000Y-127290000D01*
X185125625Y-130390000D02*
X186930000Y-130390000D01*
X186930000Y-130390000D02*
X188430000Y-128890000D01*
X183356250Y-132159375D02*
X185125625Y-130390000D01*
%TO.N,/RXD*%
X189700000Y-128060000D02*
X189700000Y-127290000D01*
X187645625Y-130410000D02*
X188610000Y-130410000D01*
X185896250Y-132159375D02*
X187645625Y-130410000D01*
X188610000Y-130410000D02*
X189750000Y-129270000D01*
X189750000Y-128110000D02*
X189700000Y-128060000D01*
X189750000Y-129270000D02*
X189750000Y-128110000D01*
%TO.N,/TXD*%
X190970000Y-129625625D02*
X190970000Y-127290000D01*
X188436250Y-132159375D02*
X190970000Y-129625625D01*
%TO.N,/IO2*%
X190976250Y-132159375D02*
X192260000Y-130875625D01*
X192260000Y-128110000D02*
X192240000Y-128090000D01*
X192240000Y-128090000D02*
X192240000Y-127290000D01*
X192260000Y-130875625D02*
X192260000Y-128110000D01*
%TO.N,/IO1*%
X193516250Y-132159375D02*
X193516250Y-127296250D01*
X193516250Y-127296250D02*
X193510000Y-127290000D01*
%TO.N,Net-(U5-EN)*%
D31*
X157687500Y-109400000D02*
X156437500Y-110650000D01*
D33*
X166100000Y-109490000D02*
X169640000Y-109490000D01*
D32*
X169420000Y-106700000D02*
X170925000Y-108205000D01*
D33*
X172760000Y-106370000D02*
X173920000Y-106370000D01*
X192210000Y-109760000D02*
X192240000Y-109790000D01*
X166010000Y-109400000D02*
X166100000Y-109490000D01*
D31*
X158810000Y-109400000D02*
X157687500Y-109400000D01*
D33*
X169640000Y-109490000D02*
X170925000Y-108205000D01*
X192260000Y-108420000D02*
X192210000Y-108470000D01*
X170925000Y-108205000D02*
X172760000Y-106370000D01*
X192210000Y-108470000D02*
X192210000Y-109760000D01*
D32*
X168570000Y-106700000D02*
X169420000Y-106700000D01*
D31*
X158810000Y-109400000D02*
X166010000Y-109400000D01*
%TO.N,/IO11*%
D32*
X176070000Y-116635000D02*
X175375000Y-117330000D01*
X162440000Y-119100000D02*
X162440000Y-121120000D01*
X177020000Y-116635000D02*
X176070000Y-116635000D01*
X175375000Y-117330000D02*
X164210000Y-117330000D01*
X164210000Y-117330000D02*
X162440000Y-119100000D01*
%TO.N,/IO10*%
X174640000Y-116720000D02*
X162730000Y-116720000D01*
X175995000Y-115365000D02*
X174640000Y-116720000D01*
X177020000Y-115365000D02*
X175995000Y-115365000D01*
X159900000Y-119550000D02*
X159900000Y-121120000D01*
X162730000Y-116720000D02*
X159900000Y-119550000D01*
%TO.N,/IO9*%
X157800000Y-119530000D02*
X161230000Y-116100000D01*
X175755000Y-114095000D02*
X177020000Y-114095000D01*
X173750000Y-116100000D02*
X175755000Y-114095000D01*
X157800000Y-120680000D02*
X157800000Y-119530000D01*
X161230000Y-116100000D02*
X173750000Y-116100000D01*
X157360000Y-121120000D02*
X157800000Y-120680000D01*
%TO.N,/IO46*%
X175895000Y-112825000D02*
X173080000Y-115640000D01*
X170650000Y-115640000D02*
X170630000Y-115660000D01*
X177020000Y-112825000D02*
X175895000Y-112825000D01*
X173080000Y-115640000D02*
X170650000Y-115640000D01*
X160280000Y-115660000D02*
X154820000Y-121120000D01*
X170630000Y-115660000D02*
X160280000Y-115660000D01*
%TO.N,+3.3V*%
D31*
X155020000Y-103057500D02*
X157777500Y-103057500D01*
X162922500Y-103460000D02*
X163988750Y-102393750D01*
X148810000Y-103407500D02*
X155110000Y-103407500D01*
X167780000Y-101168750D02*
X194023662Y-101168750D01*
X194920000Y-102065088D02*
X194920000Y-102890000D01*
X194920000Y-102890000D02*
X194320000Y-103490000D01*
X194023662Y-101168750D02*
X194920000Y-102065088D01*
X148810000Y-103407500D02*
X147742500Y-103407500D01*
X158180000Y-103460000D02*
X162922500Y-103460000D01*
X194320000Y-105270000D02*
X193510000Y-106080000D01*
X167780000Y-105799190D02*
X166879190Y-106700000D01*
X165213750Y-101168750D02*
X167780000Y-101168750D01*
X157777500Y-103057500D02*
X158180000Y-103460000D01*
X194320000Y-103490000D02*
X194320000Y-105270000D01*
X147742500Y-103407500D02*
X145070000Y-106080000D01*
X166879190Y-106700000D02*
X166570000Y-106700000D01*
X163988750Y-102393750D02*
X165213750Y-101168750D01*
X193510000Y-106080000D02*
X193510000Y-109790000D01*
X167780000Y-101168750D02*
X167780000Y-105799190D01*
%TO.N,Net-(J1-CC1)*%
D33*
X136142095Y-114065625D02*
X138790000Y-111417720D01*
X138790000Y-111417720D02*
X138790000Y-109820000D01*
X136037500Y-114065625D02*
X136142095Y-114065625D01*
%TO.N,/RAW_D+*%
D32*
X143930000Y-115627500D02*
X143930000Y-115265000D01*
X136237499Y-115115624D02*
X137673822Y-115115624D01*
X143621802Y-117810000D02*
X144655000Y-116776802D01*
X136037500Y-114915625D02*
X136237499Y-115115624D01*
X135571384Y-114915625D02*
X134721384Y-115765625D01*
X144655000Y-116352500D02*
X143930000Y-115627500D01*
X136037500Y-114915625D02*
X136237500Y-115115625D01*
X134721384Y-115765625D02*
X134687500Y-115765625D01*
X140368198Y-117810000D02*
X143621802Y-117810000D01*
X137673822Y-115115624D02*
X140368198Y-117810000D01*
X144655000Y-116776802D02*
X144655000Y-116352500D01*
X136037500Y-114915625D02*
X135571384Y-114915625D01*
%TO.N,/RAW_D-*%
X136037500Y-115765625D02*
X136237499Y-115565626D01*
X136037500Y-115765625D02*
X136237500Y-115565625D01*
X140181802Y-118260000D02*
X143808198Y-118260000D01*
X145830000Y-115627500D02*
X145830000Y-115265000D01*
X143808198Y-118260000D02*
X145105000Y-116963198D01*
X145105000Y-116963198D02*
X145105000Y-116352500D01*
X136237499Y-115565626D02*
X137487428Y-115565626D01*
X137487428Y-115565626D02*
X140181802Y-118260000D01*
X145105000Y-116352500D02*
X145830000Y-115627500D01*
%TO.N,Net-(J1-CC2)*%
D33*
X133507500Y-117691030D02*
X133507500Y-121997500D01*
X134582905Y-116615625D02*
X133507500Y-117691030D01*
X134687500Y-116615625D02*
X134582905Y-116615625D01*
X133507500Y-121997500D02*
X134060000Y-122550000D01*
%TO.N,/IO15*%
D32*
X185890000Y-106920000D02*
X185890000Y-109790000D01*
X180816250Y-102393750D02*
X181363750Y-102393750D01*
X181363750Y-102393750D02*
X185890000Y-106920000D01*
%TO.N,/IO7*%
X187160000Y-106197500D02*
X187160000Y-109790000D01*
X183356250Y-102393750D02*
X187160000Y-106197500D01*
%TO.N,/IO6*%
X185896250Y-102393750D02*
X188430000Y-104927500D01*
X188430000Y-104927500D02*
X188430000Y-109790000D01*
%TO.N,/IO5*%
X188436250Y-102393750D02*
X189700000Y-103657500D01*
X189700000Y-103657500D02*
X189700000Y-109790000D01*
%TO.N,/IO4*%
X190970000Y-108690000D02*
X190100000Y-107820000D01*
X190100000Y-103270000D02*
X190976250Y-102393750D01*
X190100000Y-107820000D02*
X190100000Y-103270000D01*
X190970000Y-109790000D02*
X190970000Y-108690000D01*
%TO.N,Net-(U5-IO48)*%
X159870000Y-126720000D02*
X159870000Y-127990000D01*
X175725000Y-124255000D02*
X175650000Y-124180000D01*
X161080000Y-125510000D02*
X159870000Y-126720000D01*
X177020000Y-124255000D02*
X175725000Y-124255000D01*
X161080000Y-125120000D02*
X161080000Y-125510000D01*
%TO.N,Net-(D3-A)*%
X155780000Y-127990000D02*
X155730000Y-127940000D01*
X157870000Y-127990000D02*
X155780000Y-127990000D01*
%TO.N,Net-(U5-IO0)*%
D31*
X169830000Y-126180000D02*
X169980000Y-126030000D01*
D33*
X171240000Y-127290000D02*
X169980000Y-126030000D01*
D31*
X167517500Y-126180000D02*
X169830000Y-126180000D01*
D33*
X169980000Y-126030000D02*
X169980000Y-126412500D01*
X178270000Y-127290000D02*
X171240000Y-127290000D01*
D31*
X169980000Y-126030000D02*
X169980000Y-118830000D01*
%TO.N,/IO16*%
D32*
X184620000Y-108840000D02*
X178173750Y-102393750D01*
X178173750Y-102393750D02*
X176688750Y-102393750D01*
X184620000Y-109790000D02*
X184620000Y-108840000D01*
%TO.N,/IO17*%
X178053750Y-103543750D02*
X175298750Y-103543750D01*
X183350000Y-109790000D02*
X183350000Y-108840000D01*
X183350000Y-108840000D02*
X178053750Y-103543750D01*
X175298750Y-103543750D02*
X174148750Y-102393750D01*
%TO.N,/IO18*%
X172223750Y-102393750D02*
X171608750Y-102393750D01*
X182080000Y-108840000D02*
X177950000Y-104710000D01*
X182080000Y-109790000D02*
X182080000Y-108840000D01*
X177950000Y-104710000D02*
X174540000Y-104710000D01*
X174540000Y-104710000D02*
X172223750Y-102393750D01*
%TO.N,/IO8*%
X171905000Y-105230000D02*
X169068750Y-102393750D01*
X177200000Y-105230000D02*
X171905000Y-105230000D01*
X180810000Y-108840000D02*
X177200000Y-105230000D01*
X180810000Y-109790000D02*
X180810000Y-108840000D01*
%TO.N,/D-*%
X168171802Y-114270000D02*
X174466802Y-107975000D01*
X147798198Y-114270000D02*
X168171802Y-114270000D01*
X146518198Y-112990000D02*
X147798198Y-114270000D01*
X178083198Y-107975000D02*
X179130001Y-109021803D01*
X179130001Y-109380001D02*
X179540000Y-109790000D01*
X179130001Y-109021803D02*
X179130001Y-109380001D01*
X174466802Y-107975000D02*
X178083198Y-107975000D01*
X145830000Y-112990000D02*
X146518198Y-112990000D01*
%TO.N,/D+*%
X147632513Y-114670000D02*
X168408198Y-114670000D01*
X178679999Y-109380001D02*
X178270000Y-109790000D01*
X144280000Y-113340000D02*
X144280000Y-113693052D01*
X168408198Y-114670000D02*
X174653198Y-108425000D01*
X143930000Y-112990000D02*
X144280000Y-113340000D01*
X177896802Y-108425000D02*
X178679999Y-109208197D01*
X146915013Y-113952500D02*
X147632513Y-114670000D01*
X144539448Y-113952500D02*
X146915013Y-113952500D01*
X144280000Y-113693052D02*
X144539448Y-113952500D01*
X174653198Y-108425000D02*
X177896802Y-108425000D01*
X178679999Y-109208197D02*
X178679999Y-109380001D01*
%TO.N,/IO21*%
X177020000Y-121715000D02*
X175635000Y-121715000D01*
X175635000Y-121715000D02*
X175590000Y-121760000D01*
%TO.N,/IO47*%
X177020000Y-122985000D02*
X175725000Y-122985000D01*
X175725000Y-122985000D02*
X175580000Y-123130000D01*
%TO.N,/IO35*%
X163830000Y-132159375D02*
X166619375Y-129370000D01*
X179540000Y-128240000D02*
X179540000Y-127290000D01*
X174140000Y-129370000D02*
X175050000Y-128460000D01*
X179320000Y-128460000D02*
X179540000Y-128240000D01*
X166619375Y-129370000D02*
X174140000Y-129370000D01*
X175050000Y-128460000D02*
X179320000Y-128460000D01*
%TO.N,/IO36*%
X174744315Y-129340000D02*
X175870000Y-129340000D01*
X180810000Y-128490000D02*
X180810000Y-127290000D01*
X176350000Y-128860000D02*
X180440000Y-128860000D01*
X166370000Y-132159375D02*
X168749375Y-129780000D01*
X175870000Y-129340000D02*
X176350000Y-128860000D01*
X174304314Y-129780000D02*
X174744315Y-129340000D01*
X168749375Y-129780000D02*
X174304314Y-129780000D01*
X180440000Y-128860000D02*
X180810000Y-128490000D01*
%TO.N,/IO37*%
X176540000Y-129260000D02*
X176060000Y-129740000D01*
X174470000Y-130180000D02*
X170889375Y-130180000D01*
X170889375Y-130180000D02*
X168910000Y-132159375D01*
X174910000Y-129740000D02*
X174470000Y-130180000D01*
X182080000Y-128248630D02*
X181068628Y-129260000D01*
X181068628Y-129260000D02*
X176540000Y-129260000D01*
X182080000Y-127290000D02*
X182080000Y-128248630D01*
X176060000Y-129740000D02*
X174910000Y-129740000D01*
%TO.N,/IO38*%
X175260000Y-130140000D02*
X176824314Y-130140000D01*
X172939375Y-130670000D02*
X174730000Y-130670000D01*
X177304315Y-129660000D02*
X181234314Y-129660000D01*
X183350000Y-128240000D02*
X183350000Y-127290000D01*
X171450000Y-132159375D02*
X172939375Y-130670000D01*
X174730000Y-130670000D02*
X175260000Y-130140000D01*
X182324315Y-128570000D02*
X183020000Y-128570000D01*
X181234314Y-129660000D02*
X182324315Y-128570000D01*
X183020000Y-128570000D02*
X183350000Y-128240000D01*
X176824314Y-130140000D02*
X177304315Y-129660000D01*
%TO.N,/IO39*%
X173990000Y-132159375D02*
X175439375Y-130710000D01*
X177470000Y-130060000D02*
X181400000Y-130060000D01*
X184620000Y-128440000D02*
X184620000Y-127290000D01*
X184110000Y-128970000D02*
X184110000Y-128950000D01*
X182490000Y-128970000D02*
X184110000Y-128970000D01*
X176820000Y-130710000D02*
X177470000Y-130060000D01*
X175439375Y-130710000D02*
X176820000Y-130710000D01*
X184110000Y-128950000D02*
X184620000Y-128440000D01*
X181400000Y-130060000D02*
X182490000Y-128970000D01*
%TO.N,/IO40*%
X185890000Y-128490000D02*
X185890000Y-127290000D01*
X182600000Y-129530000D02*
X184850000Y-129530000D01*
X178229375Y-130460000D02*
X181670000Y-130460000D01*
X184850000Y-129530000D02*
X185890000Y-128490000D01*
X176530000Y-132159375D02*
X178229375Y-130460000D01*
X181670000Y-130460000D02*
X182600000Y-129530000D01*
%TO.N,Net-(D2-A)*%
D31*
X143070000Y-106080000D02*
X140945000Y-106080000D01*
%TD*%
%TA.AperFunction,Conductor*%
%TO.N,GND*%
G36*
X195699437Y-106061570D02*
G01*
X195738294Y-106119638D01*
X195743982Y-106156081D01*
X195757366Y-108561795D01*
X195738055Y-108628943D01*
X195685506Y-108674991D01*
X195616404Y-108685319D01*
X195559057Y-108661751D01*
X195472093Y-108596649D01*
X195472086Y-108596645D01*
X195337379Y-108546403D01*
X195337372Y-108546401D01*
X195277844Y-108540000D01*
X195030000Y-108540000D01*
X195030000Y-111040000D01*
X195277828Y-111040000D01*
X195277844Y-111039999D01*
X195337372Y-111033598D01*
X195337379Y-111033596D01*
X195472086Y-110983354D01*
X195472089Y-110983352D01*
X195572658Y-110908066D01*
X195638122Y-110883648D01*
X195706395Y-110898499D01*
X195755801Y-110947904D01*
X195770968Y-111006642D01*
X195855313Y-126167735D01*
X195836002Y-126234883D01*
X195783453Y-126280931D01*
X195714351Y-126291259D01*
X195650635Y-126262588D01*
X195632048Y-126242736D01*
X195587186Y-126182808D01*
X195472093Y-126096649D01*
X195472086Y-126096645D01*
X195337379Y-126046403D01*
X195337372Y-126046401D01*
X195277844Y-126040000D01*
X195030000Y-126040000D01*
X195030000Y-128540000D01*
X195277828Y-128540000D01*
X195277844Y-128539999D01*
X195337372Y-128533598D01*
X195337379Y-128533596D01*
X195472086Y-128483354D01*
X195472093Y-128483350D01*
X195587187Y-128397190D01*
X195587188Y-128397189D01*
X195644435Y-128320717D01*
X195700368Y-128278845D01*
X195770060Y-128273861D01*
X195831383Y-128307346D01*
X195864868Y-128368669D01*
X195867700Y-128394337D01*
X195897245Y-133705016D01*
X195877934Y-133772164D01*
X195825385Y-133818212D01*
X195772958Y-133829706D01*
X164739995Y-133757254D01*
X164673001Y-133737413D01*
X164627370Y-133684502D01*
X164617588Y-133615320D01*
X164646761Y-133551833D01*
X164705627Y-133514196D01*
X164727032Y-133509964D01*
X164727869Y-133509874D01*
X164727872Y-133509874D01*
X164787483Y-133503466D01*
X164922331Y-133453171D01*
X165037546Y-133366921D01*
X165123796Y-133251706D01*
X165172810Y-133120291D01*
X165214681Y-133064359D01*
X165280145Y-133039941D01*
X165348418Y-133054792D01*
X165376673Y-133075944D01*
X165490213Y-133189484D01*
X165662179Y-133314423D01*
X165662181Y-133314424D01*
X165662184Y-133314426D01*
X165851588Y-133410932D01*
X166053757Y-133476621D01*
X166263713Y-133509875D01*
X166263714Y-133509875D01*
X166476286Y-133509875D01*
X166476287Y-133509875D01*
X166686243Y-133476621D01*
X166888412Y-133410932D01*
X167077816Y-133314426D01*
X167164138Y-133251710D01*
X167249786Y-133189484D01*
X167249788Y-133189481D01*
X167249792Y-133189479D01*
X167400104Y-133039167D01*
X167400106Y-133039163D01*
X167400109Y-133039161D01*
X167525048Y-132867195D01*
X167525047Y-132867195D01*
X167525051Y-132867191D01*
X167529514Y-132858429D01*
X167577488Y-132807634D01*
X167645308Y-132790838D01*
X167711444Y-132813374D01*
X167750486Y-132858431D01*
X167754951Y-132867195D01*
X167879890Y-133039161D01*
X168030213Y-133189484D01*
X168202179Y-133314423D01*
X168202181Y-133314424D01*
X168202184Y-133314426D01*
X168391588Y-133410932D01*
X168593757Y-133476621D01*
X168803713Y-133509875D01*
X168803714Y-133509875D01*
X169016286Y-133509875D01*
X169016287Y-133509875D01*
X169226243Y-133476621D01*
X169428412Y-133410932D01*
X169617816Y-133314426D01*
X169704138Y-133251710D01*
X169789786Y-133189484D01*
X169789788Y-133189481D01*
X169789792Y-133189479D01*
X169940104Y-133039167D01*
X169940106Y-133039163D01*
X169940109Y-133039161D01*
X170065048Y-132867195D01*
X170065047Y-132867195D01*
X170065051Y-132867191D01*
X170069514Y-132858429D01*
X170117488Y-132807634D01*
X170185308Y-132790838D01*
X170251444Y-132813374D01*
X170290486Y-132858431D01*
X170294951Y-132867195D01*
X170419890Y-133039161D01*
X170570213Y-133189484D01*
X170742179Y-133314423D01*
X170742181Y-133314424D01*
X170742184Y-133314426D01*
X170931588Y-133410932D01*
X171133757Y-133476621D01*
X171343713Y-133509875D01*
X171343714Y-133509875D01*
X171556286Y-133509875D01*
X171556287Y-133509875D01*
X171766243Y-133476621D01*
X171968412Y-133410932D01*
X172157816Y-133314426D01*
X172244138Y-133251710D01*
X172329786Y-133189484D01*
X172329788Y-133189481D01*
X172329792Y-133189479D01*
X172480104Y-133039167D01*
X172480106Y-133039163D01*
X172480109Y-133039161D01*
X172605048Y-132867195D01*
X172605047Y-132867195D01*
X172605051Y-132867191D01*
X172609514Y-132858429D01*
X172657488Y-132807634D01*
X172725308Y-132790838D01*
X172791444Y-132813374D01*
X172830486Y-132858431D01*
X172834951Y-132867195D01*
X172959890Y-133039161D01*
X173110213Y-133189484D01*
X173282179Y-133314423D01*
X173282181Y-133314424D01*
X173282184Y-133314426D01*
X173471588Y-133410932D01*
X173673757Y-133476621D01*
X173883713Y-133509875D01*
X173883714Y-133509875D01*
X174096286Y-133509875D01*
X174096287Y-133509875D01*
X174306243Y-133476621D01*
X174508412Y-133410932D01*
X174697816Y-133314426D01*
X174784138Y-133251710D01*
X174869786Y-133189484D01*
X174869788Y-133189481D01*
X174869792Y-133189479D01*
X175020104Y-133039167D01*
X175020106Y-133039163D01*
X175020109Y-133039161D01*
X175145048Y-132867195D01*
X175145047Y-132867195D01*
X175145051Y-132867191D01*
X175149514Y-132858429D01*
X175197488Y-132807634D01*
X175265308Y-132790838D01*
X175331444Y-132813374D01*
X175370486Y-132858431D01*
X175374951Y-132867195D01*
X175499890Y-133039161D01*
X175650213Y-133189484D01*
X175822179Y-133314423D01*
X175822181Y-133314424D01*
X175822184Y-133314426D01*
X176011588Y-133410932D01*
X176213757Y-133476621D01*
X176423713Y-133509875D01*
X176423714Y-133509875D01*
X176636286Y-133509875D01*
X176636287Y-133509875D01*
X176846243Y-133476621D01*
X177048412Y-133410932D01*
X177237816Y-133314426D01*
X177324138Y-133251710D01*
X177409786Y-133189484D01*
X177409788Y-133189481D01*
X177409792Y-133189479D01*
X177560104Y-133039167D01*
X177560106Y-133039163D01*
X177560109Y-133039161D01*
X177685048Y-132867195D01*
X177685047Y-132867195D01*
X177685051Y-132867191D01*
X177781557Y-132677787D01*
X177847246Y-132475618D01*
X177880500Y-132265662D01*
X177880500Y-132053088D01*
X177847246Y-131843132D01*
X177833506Y-131800848D01*
X177831512Y-131731010D01*
X177863755Y-131674853D01*
X178441791Y-131096819D01*
X178503114Y-131063334D01*
X178529472Y-131060500D01*
X179349315Y-131060500D01*
X179416354Y-131080185D01*
X179462109Y-131132989D01*
X179472604Y-131197756D01*
X179465750Y-131261494D01*
X179465750Y-133057245D01*
X179465751Y-133057251D01*
X179472158Y-133116858D01*
X179522452Y-133251703D01*
X179522456Y-133251710D01*
X179608702Y-133366919D01*
X179608705Y-133366922D01*
X179723914Y-133453168D01*
X179723921Y-133453172D01*
X179858767Y-133503466D01*
X179858766Y-133503466D01*
X179865694Y-133504210D01*
X179918377Y-133509875D01*
X181714122Y-133509874D01*
X181773733Y-133503466D01*
X181908581Y-133453171D01*
X182023796Y-133366921D01*
X182110046Y-133251706D01*
X182159060Y-133120291D01*
X182200931Y-133064359D01*
X182266395Y-133039941D01*
X182334668Y-133054792D01*
X182362923Y-133075944D01*
X182476463Y-133189484D01*
X182648429Y-133314423D01*
X182648431Y-133314424D01*
X182648434Y-133314426D01*
X182837838Y-133410932D01*
X183040007Y-133476621D01*
X183249963Y-133509875D01*
X183249964Y-133509875D01*
X183462536Y-133509875D01*
X183462537Y-133509875D01*
X183672493Y-133476621D01*
X183874662Y-133410932D01*
X184064066Y-133314426D01*
X184150388Y-133251710D01*
X184236036Y-133189484D01*
X184236038Y-133189481D01*
X184236042Y-133189479D01*
X184386354Y-133039167D01*
X184386356Y-133039163D01*
X184386359Y-133039161D01*
X184511298Y-132867195D01*
X184511297Y-132867195D01*
X184511301Y-132867191D01*
X184515764Y-132858429D01*
X184563738Y-132807634D01*
X184631558Y-132790838D01*
X184697694Y-132813374D01*
X184736736Y-132858431D01*
X184741201Y-132867195D01*
X184866140Y-133039161D01*
X185016463Y-133189484D01*
X185188429Y-133314423D01*
X185188431Y-133314424D01*
X185188434Y-133314426D01*
X185377838Y-133410932D01*
X185580007Y-133476621D01*
X185789963Y-133509875D01*
X185789964Y-133509875D01*
X186002536Y-133509875D01*
X186002537Y-133509875D01*
X186212493Y-133476621D01*
X186414662Y-133410932D01*
X186604066Y-133314426D01*
X186690388Y-133251710D01*
X186776036Y-133189484D01*
X186776038Y-133189481D01*
X186776042Y-133189479D01*
X186926354Y-133039167D01*
X186926356Y-133039163D01*
X186926359Y-133039161D01*
X187051298Y-132867195D01*
X187051297Y-132867195D01*
X187051301Y-132867191D01*
X187055764Y-132858429D01*
X187103738Y-132807634D01*
X187171558Y-132790838D01*
X187237694Y-132813374D01*
X187276736Y-132858431D01*
X187281201Y-132867195D01*
X187406140Y-133039161D01*
X187556463Y-133189484D01*
X187728429Y-133314423D01*
X187728431Y-133314424D01*
X187728434Y-133314426D01*
X187917838Y-133410932D01*
X188120007Y-133476621D01*
X188329963Y-133509875D01*
X188329964Y-133509875D01*
X188542536Y-133509875D01*
X188542537Y-133509875D01*
X188752493Y-133476621D01*
X188954662Y-133410932D01*
X189144066Y-133314426D01*
X189230388Y-133251710D01*
X189316036Y-133189484D01*
X189316038Y-133189481D01*
X189316042Y-133189479D01*
X189466354Y-133039167D01*
X189466356Y-133039163D01*
X189466359Y-133039161D01*
X189591298Y-132867195D01*
X189591297Y-132867195D01*
X189591301Y-132867191D01*
X189595764Y-132858429D01*
X189643738Y-132807634D01*
X189711558Y-132790838D01*
X189777694Y-132813374D01*
X189816736Y-132858431D01*
X189821201Y-132867195D01*
X189946140Y-133039161D01*
X190096463Y-133189484D01*
X190268429Y-133314423D01*
X190268431Y-133314424D01*
X190268434Y-133314426D01*
X190457838Y-133410932D01*
X190660007Y-133476621D01*
X190869963Y-133509875D01*
X190869964Y-133509875D01*
X191082536Y-133509875D01*
X191082537Y-133509875D01*
X191292493Y-133476621D01*
X191494662Y-133410932D01*
X191684066Y-133314426D01*
X191770388Y-133251710D01*
X191856036Y-133189484D01*
X191856038Y-133189481D01*
X191856042Y-133189479D01*
X192006354Y-133039167D01*
X192006356Y-133039163D01*
X192006359Y-133039161D01*
X192131298Y-132867195D01*
X192131297Y-132867195D01*
X192131301Y-132867191D01*
X192135764Y-132858429D01*
X192183738Y-132807634D01*
X192251558Y-132790838D01*
X192317694Y-132813374D01*
X192356736Y-132858431D01*
X192361201Y-132867195D01*
X192486140Y-133039161D01*
X192636463Y-133189484D01*
X192808429Y-133314423D01*
X192808431Y-133314424D01*
X192808434Y-133314426D01*
X192997838Y-133410932D01*
X193200007Y-133476621D01*
X193409963Y-133509875D01*
X193409964Y-133509875D01*
X193622536Y-133509875D01*
X193622537Y-133509875D01*
X193832493Y-133476621D01*
X194034662Y-133410932D01*
X194224066Y-133314426D01*
X194310388Y-133251710D01*
X194396036Y-133189484D01*
X194396038Y-133189481D01*
X194396042Y-133189479D01*
X194546354Y-133039167D01*
X194546356Y-133039163D01*
X194546359Y-133039161D01*
X194671298Y-132867195D01*
X194671297Y-132867195D01*
X194671301Y-132867191D01*
X194767807Y-132677787D01*
X194833496Y-132475618D01*
X194866750Y-132265662D01*
X194866750Y-132053088D01*
X194833496Y-131843132D01*
X194767807Y-131640963D01*
X194671301Y-131451559D01*
X194671299Y-131451556D01*
X194671298Y-131451554D01*
X194546359Y-131279588D01*
X194396036Y-131129265D01*
X194224065Y-131004323D01*
X194224064Y-131004322D01*
X194184455Y-130984140D01*
X194133659Y-130936166D01*
X194116750Y-130873656D01*
X194116750Y-128660261D01*
X194136435Y-128593222D01*
X194189239Y-128547467D01*
X194254008Y-128536972D01*
X194282160Y-128539999D01*
X194282172Y-128540000D01*
X194530000Y-128540000D01*
X194530000Y-126040000D01*
X194282155Y-126040000D01*
X194222627Y-126046401D01*
X194222619Y-126046403D01*
X194189047Y-126058925D01*
X194119355Y-126063909D01*
X194102381Y-126058925D01*
X194067482Y-126045908D01*
X194067483Y-126045908D01*
X194007883Y-126039501D01*
X194007881Y-126039500D01*
X194007873Y-126039500D01*
X194007864Y-126039500D01*
X193012129Y-126039500D01*
X193012123Y-126039501D01*
X192952518Y-126045908D01*
X192918331Y-126058659D01*
X192848639Y-126063642D01*
X192831669Y-126058659D01*
X192814140Y-126052121D01*
X192797483Y-126045909D01*
X192797482Y-126045908D01*
X192737883Y-126039501D01*
X192737881Y-126039500D01*
X192737873Y-126039500D01*
X192737864Y-126039500D01*
X191742129Y-126039500D01*
X191742123Y-126039501D01*
X191682518Y-126045908D01*
X191648331Y-126058659D01*
X191578639Y-126063642D01*
X191561669Y-126058659D01*
X191544140Y-126052121D01*
X191527483Y-126045909D01*
X191527482Y-126045908D01*
X191467883Y-126039501D01*
X191467881Y-126039500D01*
X191467873Y-126039500D01*
X191467864Y-126039500D01*
X190472129Y-126039500D01*
X190472123Y-126039501D01*
X190412518Y-126045908D01*
X190378331Y-126058659D01*
X190308639Y-126063642D01*
X190291669Y-126058659D01*
X190274140Y-126052121D01*
X190257483Y-126045909D01*
X190257482Y-126045908D01*
X190197883Y-126039501D01*
X190197881Y-126039500D01*
X190197873Y-126039500D01*
X190197864Y-126039500D01*
X189202129Y-126039500D01*
X189202123Y-126039501D01*
X189142518Y-126045908D01*
X189108331Y-126058659D01*
X189038639Y-126063642D01*
X189021669Y-126058659D01*
X189004140Y-126052121D01*
X188987483Y-126045909D01*
X188987482Y-126045908D01*
X188927883Y-126039501D01*
X188927881Y-126039500D01*
X188927873Y-126039500D01*
X188927864Y-126039500D01*
X187932129Y-126039500D01*
X187932123Y-126039501D01*
X187872518Y-126045908D01*
X187838331Y-126058659D01*
X187768639Y-126063642D01*
X187751669Y-126058659D01*
X187734140Y-126052121D01*
X187717483Y-126045909D01*
X187717482Y-126045908D01*
X187657883Y-126039501D01*
X187657881Y-126039500D01*
X187657873Y-126039500D01*
X187657864Y-126039500D01*
X186662129Y-126039500D01*
X186662123Y-126039501D01*
X186602518Y-126045908D01*
X186568331Y-126058659D01*
X186498639Y-126063642D01*
X186481669Y-126058659D01*
X186464140Y-126052121D01*
X186447483Y-126045909D01*
X186447482Y-126045908D01*
X186387883Y-126039501D01*
X186387881Y-126039500D01*
X186387873Y-126039500D01*
X186387864Y-126039500D01*
X185392129Y-126039500D01*
X185392123Y-126039501D01*
X185332518Y-126045908D01*
X185298331Y-126058659D01*
X185228639Y-126063642D01*
X185211669Y-126058659D01*
X185194140Y-126052121D01*
X185177483Y-126045909D01*
X185177482Y-126045908D01*
X185117883Y-126039501D01*
X185117881Y-126039500D01*
X185117873Y-126039500D01*
X185117864Y-126039500D01*
X184122129Y-126039500D01*
X184122123Y-126039501D01*
X184062518Y-126045908D01*
X184028331Y-126058659D01*
X183958639Y-126063642D01*
X183941669Y-126058659D01*
X183924140Y-126052121D01*
X183907483Y-126045909D01*
X183907482Y-126045908D01*
X183847883Y-126039501D01*
X183847881Y-126039500D01*
X183847873Y-126039500D01*
X183847864Y-126039500D01*
X182852129Y-126039500D01*
X182852123Y-126039501D01*
X182792518Y-126045908D01*
X182758331Y-126058659D01*
X182688639Y-126063642D01*
X182671669Y-126058659D01*
X182654140Y-126052121D01*
X182637483Y-126045909D01*
X182637482Y-126045908D01*
X182577883Y-126039501D01*
X182577881Y-126039500D01*
X182577873Y-126039500D01*
X182577864Y-126039500D01*
X181582129Y-126039500D01*
X181582123Y-126039501D01*
X181522518Y-126045908D01*
X181488331Y-126058659D01*
X181418639Y-126063642D01*
X181401669Y-126058659D01*
X181384140Y-126052121D01*
X181367483Y-126045909D01*
X181367482Y-126045908D01*
X181307883Y-126039501D01*
X181307881Y-126039500D01*
X181307873Y-126039500D01*
X181307864Y-126039500D01*
X180312129Y-126039500D01*
X180312123Y-126039501D01*
X180252518Y-126045908D01*
X180218331Y-126058659D01*
X180148639Y-126063642D01*
X180131669Y-126058659D01*
X180114140Y-126052121D01*
X180097483Y-126045909D01*
X180097482Y-126045908D01*
X180037883Y-126039501D01*
X180037881Y-126039500D01*
X180037873Y-126039500D01*
X180037864Y-126039500D01*
X179042129Y-126039500D01*
X179042123Y-126039501D01*
X178982518Y-126045908D01*
X178948331Y-126058659D01*
X178878639Y-126063642D01*
X178861669Y-126058659D01*
X178844140Y-126052121D01*
X178827483Y-126045909D01*
X178827482Y-126045908D01*
X178767883Y-126039501D01*
X178767881Y-126039500D01*
X178767873Y-126039500D01*
X178767865Y-126039500D01*
X178394500Y-126039500D01*
X178327461Y-126019815D01*
X178281706Y-125967011D01*
X178270500Y-125915500D01*
X178270499Y-125027129D01*
X178270498Y-125027123D01*
X178269801Y-125020643D01*
X178264091Y-124967517D01*
X178251340Y-124933332D01*
X178246357Y-124863642D01*
X178251338Y-124846672D01*
X178264091Y-124812483D01*
X178270500Y-124752873D01*
X178270499Y-123757128D01*
X178264091Y-123697517D01*
X178251340Y-123663332D01*
X178246357Y-123593642D01*
X178251338Y-123576672D01*
X178264091Y-123542483D01*
X178270500Y-123482873D01*
X178270499Y-122487128D01*
X178264091Y-122427517D01*
X178251340Y-122393332D01*
X178246357Y-122323642D01*
X178251338Y-122306672D01*
X178264091Y-122272483D01*
X178270500Y-122212873D01*
X178270499Y-121217128D01*
X178264091Y-121157517D01*
X178251340Y-121123332D01*
X178246357Y-121053642D01*
X178251338Y-121036672D01*
X178264091Y-121002483D01*
X178270500Y-120942873D01*
X178270499Y-119947128D01*
X178264091Y-119887517D01*
X178251340Y-119853332D01*
X178246357Y-119783642D01*
X178251340Y-119766669D01*
X178264091Y-119732483D01*
X178270500Y-119672873D01*
X178270499Y-118677128D01*
X178264091Y-118617517D01*
X178251340Y-118583332D01*
X178246357Y-118513642D01*
X178251340Y-118496669D01*
X178264091Y-118462483D01*
X178270500Y-118402873D01*
X178270499Y-117407128D01*
X178264091Y-117347517D01*
X178251340Y-117313332D01*
X178246357Y-117243642D01*
X178251338Y-117226672D01*
X178264091Y-117192483D01*
X178270500Y-117132873D01*
X178270499Y-116137128D01*
X178264091Y-116077517D01*
X178251340Y-116043332D01*
X178246357Y-115973642D01*
X178251338Y-115956672D01*
X178264091Y-115922483D01*
X178270500Y-115862873D01*
X178270499Y-114867128D01*
X178264091Y-114807517D01*
X178251340Y-114773332D01*
X178246357Y-114703642D01*
X178251338Y-114686672D01*
X178264091Y-114652483D01*
X178270500Y-114592873D01*
X178270499Y-113597128D01*
X178264091Y-113537517D01*
X178251340Y-113503332D01*
X178246357Y-113433642D01*
X178251338Y-113416672D01*
X178264091Y-113382483D01*
X178270500Y-113322873D01*
X178270499Y-112327128D01*
X178264091Y-112267517D01*
X178251340Y-112233332D01*
X178246357Y-112163642D01*
X178251338Y-112146672D01*
X178264091Y-112112483D01*
X178270500Y-112052873D01*
X178270499Y-111164498D01*
X178290183Y-111097460D01*
X178342987Y-111051705D01*
X178394499Y-111040499D01*
X178767871Y-111040499D01*
X178767872Y-111040499D01*
X178827483Y-111034091D01*
X178861667Y-111021340D01*
X178931358Y-111016357D01*
X178948327Y-111021338D01*
X178982517Y-111034091D01*
X179042127Y-111040500D01*
X180037872Y-111040499D01*
X180097483Y-111034091D01*
X180131667Y-111021340D01*
X180201358Y-111016357D01*
X180218327Y-111021338D01*
X180252517Y-111034091D01*
X180312127Y-111040500D01*
X181307872Y-111040499D01*
X181367483Y-111034091D01*
X181401667Y-111021340D01*
X181471358Y-111016357D01*
X181488327Y-111021338D01*
X181522517Y-111034091D01*
X181582127Y-111040500D01*
X182577872Y-111040499D01*
X182637483Y-111034091D01*
X182671667Y-111021340D01*
X182741358Y-111016357D01*
X182758327Y-111021338D01*
X182792517Y-111034091D01*
X182852127Y-111040500D01*
X183847872Y-111040499D01*
X183907483Y-111034091D01*
X183941667Y-111021340D01*
X184011358Y-111016357D01*
X184028327Y-111021338D01*
X184062517Y-111034091D01*
X184122127Y-111040500D01*
X185117872Y-111040499D01*
X185177483Y-111034091D01*
X185211667Y-111021340D01*
X185281358Y-111016357D01*
X185298327Y-111021338D01*
X185332517Y-111034091D01*
X185392127Y-111040500D01*
X186387872Y-111040499D01*
X186447483Y-111034091D01*
X186481667Y-111021340D01*
X186551358Y-111016357D01*
X186568327Y-111021338D01*
X186602517Y-111034091D01*
X186662127Y-111040500D01*
X187657872Y-111040499D01*
X187717483Y-111034091D01*
X187751667Y-111021340D01*
X187821358Y-111016357D01*
X187838327Y-111021338D01*
X187872517Y-111034091D01*
X187932127Y-111040500D01*
X188927872Y-111040499D01*
X188987483Y-111034091D01*
X189021667Y-111021340D01*
X189091358Y-111016357D01*
X189108327Y-111021338D01*
X189142517Y-111034091D01*
X189202127Y-111040500D01*
X190197872Y-111040499D01*
X190257483Y-111034091D01*
X190291667Y-111021340D01*
X190361358Y-111016357D01*
X190378327Y-111021338D01*
X190412517Y-111034091D01*
X190472127Y-111040500D01*
X191467872Y-111040499D01*
X191527483Y-111034091D01*
X191561667Y-111021340D01*
X191631358Y-111016357D01*
X191648327Y-111021338D01*
X191682517Y-111034091D01*
X191742127Y-111040500D01*
X192737872Y-111040499D01*
X192797483Y-111034091D01*
X192831667Y-111021340D01*
X192901358Y-111016357D01*
X192918327Y-111021338D01*
X192952517Y-111034091D01*
X193012127Y-111040500D01*
X194007872Y-111040499D01*
X194067483Y-111034091D01*
X194102381Y-111021074D01*
X194172069Y-111016089D01*
X194189050Y-111021075D01*
X194222623Y-111033598D01*
X194282155Y-111039999D01*
X194282172Y-111040000D01*
X194530000Y-111040000D01*
X194530000Y-108540000D01*
X194309500Y-108540000D01*
X194242461Y-108520315D01*
X194196706Y-108467511D01*
X194185500Y-108416000D01*
X194185500Y-106589499D01*
X194205185Y-106522460D01*
X194257989Y-106476705D01*
X194309500Y-106465499D01*
X194915002Y-106465499D01*
X194915008Y-106465499D01*
X195017797Y-106454999D01*
X195184334Y-106399814D01*
X195333656Y-106307712D01*
X195457712Y-106183656D01*
X195514447Y-106091672D01*
X195566392Y-106044950D01*
X195635354Y-106033727D01*
X195699437Y-106061570D01*
G37*
%TD.AperFunction*%
%TA.AperFunction,Conductor*%
G36*
X146835703Y-114722871D02*
G01*
X146842181Y-114728903D01*
X147147652Y-115034374D01*
X147147662Y-115034385D01*
X147151992Y-115038715D01*
X147151993Y-115038716D01*
X147263797Y-115150520D01*
X147340287Y-115194681D01*
X147340288Y-115194682D01*
X147400722Y-115229574D01*
X147400723Y-115229574D01*
X147400728Y-115229577D01*
X147553455Y-115270500D01*
X147553456Y-115270500D01*
X159520902Y-115270500D01*
X159587941Y-115290185D01*
X159633696Y-115342989D01*
X159643640Y-115412147D01*
X159614615Y-115475703D01*
X159608583Y-115482181D01*
X155304522Y-119786241D01*
X155243199Y-119819726D01*
X155178523Y-119816491D01*
X155136245Y-119802754D01*
X154980496Y-119778086D01*
X154926287Y-119769500D01*
X154713713Y-119769500D01*
X154665042Y-119777208D01*
X154503760Y-119802753D01*
X154301585Y-119868444D01*
X154112179Y-119964951D01*
X153940213Y-120089890D01*
X153789890Y-120240213D01*
X153664951Y-120412179D01*
X153568444Y-120601585D01*
X153502753Y-120803760D01*
X153469500Y-121013713D01*
X153469500Y-121226286D01*
X153499418Y-121415185D01*
X153502754Y-121436243D01*
X153566247Y-121631654D01*
X153568444Y-121638414D01*
X153664951Y-121827820D01*
X153789890Y-121999786D01*
X153940213Y-122150109D01*
X154112179Y-122275048D01*
X154112181Y-122275049D01*
X154112184Y-122275051D01*
X154301588Y-122371557D01*
X154503757Y-122437246D01*
X154713713Y-122470500D01*
X154713714Y-122470500D01*
X154926286Y-122470500D01*
X154926287Y-122470500D01*
X155136243Y-122437246D01*
X155338412Y-122371557D01*
X155527816Y-122275051D01*
X155613384Y-122212883D01*
X155699786Y-122150109D01*
X155699788Y-122150106D01*
X155699792Y-122150104D01*
X155850104Y-121999792D01*
X155850106Y-121999788D01*
X155850109Y-121999786D01*
X155975048Y-121827820D01*
X155975047Y-121827820D01*
X155975051Y-121827816D01*
X155979514Y-121819054D01*
X156027488Y-121768259D01*
X156095308Y-121751463D01*
X156161444Y-121773999D01*
X156200486Y-121819056D01*
X156204951Y-121827820D01*
X156329890Y-121999786D01*
X156480213Y-122150109D01*
X156652179Y-122275048D01*
X156652181Y-122275049D01*
X156652184Y-122275051D01*
X156841588Y-122371557D01*
X157043757Y-122437246D01*
X157253713Y-122470500D01*
X157253714Y-122470500D01*
X157466286Y-122470500D01*
X157466287Y-122470500D01*
X157676243Y-122437246D01*
X157878412Y-122371557D01*
X158067816Y-122275051D01*
X158153384Y-122212883D01*
X158239786Y-122150109D01*
X158239788Y-122150106D01*
X158239792Y-122150104D01*
X158390104Y-121999792D01*
X158390106Y-121999788D01*
X158390109Y-121999786D01*
X158515048Y-121827820D01*
X158515047Y-121827820D01*
X158515051Y-121827816D01*
X158519514Y-121819054D01*
X158567488Y-121768259D01*
X158635308Y-121751463D01*
X158701444Y-121773999D01*
X158740486Y-121819056D01*
X158744951Y-121827820D01*
X158869890Y-121999786D01*
X159020213Y-122150109D01*
X159192179Y-122275048D01*
X159192181Y-122275049D01*
X159192184Y-122275051D01*
X159381588Y-122371557D01*
X159583757Y-122437246D01*
X159793713Y-122470500D01*
X159793714Y-122470500D01*
X160006286Y-122470500D01*
X160006287Y-122470500D01*
X160216243Y-122437246D01*
X160418412Y-122371557D01*
X160607816Y-122275051D01*
X160779792Y-122150104D01*
X160893329Y-122036566D01*
X160954648Y-122003084D01*
X161024340Y-122008068D01*
X161080274Y-122049939D01*
X161097189Y-122080917D01*
X161146202Y-122212328D01*
X161146206Y-122212335D01*
X161232452Y-122327544D01*
X161232455Y-122327547D01*
X161347664Y-122413793D01*
X161347671Y-122413797D01*
X161482517Y-122464091D01*
X161482516Y-122464091D01*
X161489444Y-122464835D01*
X161542127Y-122470500D01*
X163337872Y-122470499D01*
X163397483Y-122464091D01*
X163532331Y-122413796D01*
X163647546Y-122327546D01*
X163733796Y-122212331D01*
X163784091Y-122077483D01*
X163790500Y-122017873D01*
X163790499Y-120222128D01*
X163784091Y-120162517D01*
X163782810Y-120159083D01*
X163733797Y-120027671D01*
X163733793Y-120027664D01*
X163647547Y-119912455D01*
X163647544Y-119912452D01*
X163532335Y-119826206D01*
X163532328Y-119826202D01*
X163397482Y-119775908D01*
X163397483Y-119775908D01*
X163337883Y-119769501D01*
X163337881Y-119769500D01*
X163337873Y-119769500D01*
X163337865Y-119769500D01*
X163164500Y-119769500D01*
X163097461Y-119749815D01*
X163051706Y-119697011D01*
X163040500Y-119645500D01*
X163040500Y-119400097D01*
X163060185Y-119333058D01*
X163076819Y-119312416D01*
X164422416Y-117966819D01*
X164483739Y-117933334D01*
X164510097Y-117930500D01*
X168655500Y-117930500D01*
X168722539Y-117950185D01*
X168768294Y-118002989D01*
X168779500Y-118054500D01*
X168779500Y-119677870D01*
X168779501Y-119677876D01*
X168785908Y-119737483D01*
X168836202Y-119872328D01*
X168836206Y-119872335D01*
X168922452Y-119987544D01*
X168922455Y-119987547D01*
X169037664Y-120073793D01*
X169037671Y-120073797D01*
X169080819Y-120089890D01*
X169172517Y-120124091D01*
X169193756Y-120126374D01*
X169258304Y-120153110D01*
X169298154Y-120210502D01*
X169304500Y-120249663D01*
X169304500Y-124610336D01*
X169284815Y-124677375D01*
X169232011Y-124723130D01*
X169193754Y-124733626D01*
X169172516Y-124735909D01*
X169037671Y-124786202D01*
X169037664Y-124786206D01*
X168922455Y-124872452D01*
X168922452Y-124872455D01*
X168836206Y-124987664D01*
X168836202Y-124987671D01*
X168785908Y-125122517D01*
X168779501Y-125182116D01*
X168779501Y-125182123D01*
X168779500Y-125182135D01*
X168779500Y-125340567D01*
X168759815Y-125407606D01*
X168707011Y-125453361D01*
X168637853Y-125463305D01*
X168574297Y-125434280D01*
X168545423Y-125391015D01*
X168542864Y-125392209D01*
X168539815Y-125385670D01*
X168539814Y-125385666D01*
X168447712Y-125236344D01*
X168323656Y-125112288D01*
X168208335Y-125041158D01*
X168174336Y-125020187D01*
X168174331Y-125020185D01*
X168172862Y-125019698D01*
X168007797Y-124965001D01*
X168007795Y-124965000D01*
X167905010Y-124954500D01*
X167129998Y-124954500D01*
X167129980Y-124954501D01*
X167027203Y-124965000D01*
X167027200Y-124965001D01*
X166860668Y-125020185D01*
X166860663Y-125020187D01*
X166711342Y-125112289D01*
X166587288Y-125236343D01*
X166587283Y-125236349D01*
X166585241Y-125239661D01*
X166583247Y-125241453D01*
X166582807Y-125242011D01*
X166582711Y-125241935D01*
X166533291Y-125286383D01*
X166464328Y-125297602D01*
X166400247Y-125269755D01*
X166374168Y-125239656D01*
X166372319Y-125236659D01*
X166372316Y-125236655D01*
X166248345Y-125112684D01*
X166099124Y-125020643D01*
X166099119Y-125020641D01*
X165932697Y-124965494D01*
X165932690Y-124965493D01*
X165829986Y-124955000D01*
X165692500Y-124955000D01*
X165692500Y-127404999D01*
X165829972Y-127404999D01*
X165829986Y-127404998D01*
X165932697Y-127394505D01*
X166099119Y-127339358D01*
X166099124Y-127339356D01*
X166248345Y-127247315D01*
X166372318Y-127123342D01*
X166374165Y-127120348D01*
X166375969Y-127118724D01*
X166376798Y-127117677D01*
X166376976Y-127117818D01*
X166426110Y-127073621D01*
X166495073Y-127062396D01*
X166559156Y-127090236D01*
X166585243Y-127120341D01*
X166587288Y-127123656D01*
X166711344Y-127247712D01*
X166860666Y-127339814D01*
X167027203Y-127394999D01*
X167129991Y-127405500D01*
X167905008Y-127405499D01*
X167905016Y-127405498D01*
X167905019Y-127405498D01*
X167961302Y-127399748D01*
X168007797Y-127394999D01*
X168174334Y-127339814D01*
X168323656Y-127247712D01*
X168447712Y-127123656D01*
X168539814Y-126974334D01*
X168548777Y-126947285D01*
X168551028Y-126940494D01*
X168590801Y-126883050D01*
X168655317Y-126856228D01*
X168668733Y-126855500D01*
X168669236Y-126855500D01*
X168736275Y-126875185D01*
X168782030Y-126927989D01*
X168785418Y-126936167D01*
X168836202Y-127072328D01*
X168836206Y-127072335D01*
X168922452Y-127187544D01*
X168922455Y-127187547D01*
X169037664Y-127273793D01*
X169037671Y-127273797D01*
X169172517Y-127324091D01*
X169172516Y-127324091D01*
X169179444Y-127324835D01*
X169232127Y-127330500D01*
X170309190Y-127330499D01*
X170376229Y-127350183D01*
X170396871Y-127366818D01*
X170825328Y-127795275D01*
X170825331Y-127795277D01*
X170891515Y-127839499D01*
X170931873Y-127866465D01*
X171050256Y-127915501D01*
X171050260Y-127915501D01*
X171050261Y-127915502D01*
X171175928Y-127940500D01*
X171175931Y-127940500D01*
X174420902Y-127940500D01*
X174487941Y-127960185D01*
X174533696Y-128012989D01*
X174543640Y-128082147D01*
X174514615Y-128145703D01*
X174508583Y-128152181D01*
X173927584Y-128733181D01*
X173866261Y-128766666D01*
X173839903Y-128769500D01*
X166706044Y-128769500D01*
X166706028Y-128769499D01*
X166698432Y-128769499D01*
X166540318Y-128769499D01*
X166436207Y-128797396D01*
X166387585Y-128810424D01*
X166387584Y-128810425D01*
X166337471Y-128839359D01*
X166337470Y-128839360D01*
X166294064Y-128864420D01*
X166250660Y-128889479D01*
X166250657Y-128889481D01*
X166138853Y-129001286D01*
X164367582Y-130772556D01*
X164306259Y-130806041D01*
X164279901Y-130808875D01*
X162932129Y-130808875D01*
X162932123Y-130808876D01*
X162872516Y-130815283D01*
X162737671Y-130865577D01*
X162737664Y-130865581D01*
X162622455Y-130951827D01*
X162622452Y-130951830D01*
X162536206Y-131067039D01*
X162536202Y-131067046D01*
X162485908Y-131201892D01*
X162479501Y-131261491D01*
X162479500Y-131261510D01*
X162479500Y-133057245D01*
X162479501Y-133057251D01*
X162485908Y-133116858D01*
X162536202Y-133251703D01*
X162536206Y-133251710D01*
X162622452Y-133366919D01*
X162622455Y-133366922D01*
X162737664Y-133453168D01*
X162737671Y-133453172D01*
X162872513Y-133503465D01*
X162872514Y-133503465D01*
X162872517Y-133503466D01*
X162892556Y-133505620D01*
X162957105Y-133532356D01*
X162996955Y-133589747D01*
X162999450Y-133659572D01*
X162963799Y-133719662D01*
X162901320Y-133750938D01*
X162879012Y-133752909D01*
X133145648Y-133683492D01*
X133078654Y-133663651D01*
X133033023Y-133610740D01*
X133023241Y-133541558D01*
X133052414Y-133478071D01*
X133058228Y-133471839D01*
X133197531Y-133332537D01*
X133347011Y-133126795D01*
X133462466Y-132900201D01*
X133541053Y-132658336D01*
X133580836Y-132407156D01*
X133580836Y-132152844D01*
X133541053Y-131901664D01*
X133462466Y-131659799D01*
X133462464Y-131659796D01*
X133462464Y-131659794D01*
X133420579Y-131577591D01*
X133347011Y-131433205D01*
X133197531Y-131227463D01*
X133017705Y-131047637D01*
X132885838Y-130951830D01*
X132811966Y-130898159D01*
X132811965Y-130898158D01*
X132811963Y-130898157D01*
X132728962Y-130855866D01*
X132585373Y-130782703D01*
X132343504Y-130704115D01*
X132092324Y-130664332D01*
X131838012Y-130664332D01*
X131712422Y-130684223D01*
X131586831Y-130704115D01*
X131344962Y-130782703D01*
X131118369Y-130898159D01*
X130912634Y-131047634D01*
X130912628Y-131047639D01*
X130732807Y-131227460D01*
X130732807Y-131227461D01*
X130732805Y-131227463D01*
X130697071Y-131276647D01*
X130641741Y-131319312D01*
X130572127Y-131325291D01*
X130510332Y-131292685D01*
X130475975Y-131231846D01*
X130472753Y-131203975D01*
X130472749Y-131201892D01*
X130469598Y-129376889D01*
X130467981Y-128439986D01*
X152605001Y-128439986D01*
X152615494Y-128542697D01*
X152670641Y-128709119D01*
X152670643Y-128709124D01*
X152762684Y-128858345D01*
X152886654Y-128982315D01*
X153035875Y-129074356D01*
X153035880Y-129074358D01*
X153202302Y-129129505D01*
X153202309Y-129129506D01*
X153305019Y-129139999D01*
X153429999Y-129139999D01*
X153430000Y-129139998D01*
X153430000Y-128190000D01*
X152605001Y-128190000D01*
X152605001Y-128439986D01*
X130467981Y-128439986D01*
X130467461Y-128138852D01*
X130466686Y-127690000D01*
X130466254Y-127440013D01*
X152605000Y-127440013D01*
X152605000Y-127690000D01*
X153430000Y-127690000D01*
X153430000Y-126740000D01*
X153930000Y-126740000D01*
X153930000Y-129139999D01*
X154054972Y-129139999D01*
X154054986Y-129139998D01*
X154157697Y-129129505D01*
X154324119Y-129074358D01*
X154324124Y-129074356D01*
X154473345Y-128982315D01*
X154597318Y-128858342D01*
X154599165Y-128855348D01*
X154600969Y-128853724D01*
X154601798Y-128852677D01*
X154601976Y-128852818D01*
X154651110Y-128808621D01*
X154720073Y-128797396D01*
X154784156Y-128825236D01*
X154810243Y-128855341D01*
X154812288Y-128858656D01*
X154936344Y-128982712D01*
X155085666Y-129074814D01*
X155252203Y-129129999D01*
X155354991Y-129140500D01*
X156105008Y-129140499D01*
X156105016Y-129140498D01*
X156105019Y-129140498D01*
X156161302Y-129134748D01*
X156207797Y-129129999D01*
X156374334Y-129074814D01*
X156523656Y-128982712D01*
X156647712Y-128858656D01*
X156666542Y-128828128D01*
X156718485Y-128781405D01*
X156787448Y-128770181D01*
X156851530Y-128798023D01*
X156877617Y-128828128D01*
X156927285Y-128908652D01*
X156927288Y-128908656D01*
X157051344Y-129032712D01*
X157200666Y-129124814D01*
X157367203Y-129179999D01*
X157469991Y-129190500D01*
X158270008Y-129190499D01*
X158270016Y-129190498D01*
X158270019Y-129190498D01*
X158326302Y-129184748D01*
X158372797Y-129179999D01*
X158539334Y-129124814D01*
X158688656Y-129032712D01*
X158782319Y-128939049D01*
X158843642Y-128905564D01*
X158913334Y-128910548D01*
X158957681Y-128939049D01*
X159051344Y-129032712D01*
X159200666Y-129124814D01*
X159367203Y-129179999D01*
X159469991Y-129190500D01*
X160270008Y-129190499D01*
X160270016Y-129190498D01*
X160270019Y-129190498D01*
X160326302Y-129184748D01*
X160372797Y-129179999D01*
X160539334Y-129124814D01*
X160688656Y-129032712D01*
X160812712Y-128908656D01*
X160904814Y-128759334D01*
X160959999Y-128592797D01*
X160970500Y-128490009D01*
X160970499Y-127489992D01*
X160959999Y-127387203D01*
X160904814Y-127220666D01*
X160812712Y-127071344D01*
X160688656Y-126947288D01*
X160688653Y-126947285D01*
X160688099Y-126946847D01*
X160687817Y-126946449D01*
X160683549Y-126942181D01*
X160684278Y-126941451D01*
X160647723Y-126889824D01*
X160644586Y-126820025D01*
X160677329Y-126761904D01*
X160734247Y-126704986D01*
X164355001Y-126704986D01*
X164365494Y-126807697D01*
X164420641Y-126974119D01*
X164420643Y-126974124D01*
X164512684Y-127123345D01*
X164636654Y-127247315D01*
X164785875Y-127339356D01*
X164785880Y-127339358D01*
X164952302Y-127394505D01*
X164952309Y-127394506D01*
X165055019Y-127404999D01*
X165192499Y-127404999D01*
X165192500Y-127404998D01*
X165192500Y-126430000D01*
X164355001Y-126430000D01*
X164355001Y-126704986D01*
X160734247Y-126704986D01*
X161438506Y-126000728D01*
X161438511Y-126000724D01*
X161448714Y-125990520D01*
X161448716Y-125990520D01*
X161560520Y-125878716D01*
X161639577Y-125741784D01*
X161649015Y-125706556D01*
X161652985Y-125698586D01*
X161653498Y-125693000D01*
X161662896Y-125678693D01*
X161671029Y-125662368D01*
X161675715Y-125656362D01*
X161677064Y-125655013D01*
X164355000Y-125655013D01*
X164355000Y-125930000D01*
X165192500Y-125930000D01*
X165192500Y-124955000D01*
X165055027Y-124955000D01*
X165055012Y-124955001D01*
X164952302Y-124965494D01*
X164785880Y-125020641D01*
X164785875Y-125020643D01*
X164636654Y-125112684D01*
X164512684Y-125236654D01*
X164420643Y-125385875D01*
X164420641Y-125385880D01*
X164365494Y-125552302D01*
X164365493Y-125552309D01*
X164355000Y-125655013D01*
X161677064Y-125655013D01*
X161701789Y-125630289D01*
X161753899Y-125552302D01*
X161789390Y-125499185D01*
X161789390Y-125499184D01*
X161789394Y-125499179D01*
X161849737Y-125353497D01*
X161880500Y-125198842D01*
X161880500Y-125041158D01*
X161880500Y-125041155D01*
X161880499Y-125041153D01*
X161868434Y-124980499D01*
X161849737Y-124886503D01*
X161819077Y-124812483D01*
X161789397Y-124740827D01*
X161789390Y-124740814D01*
X161701789Y-124609711D01*
X161701786Y-124609707D01*
X161590292Y-124498213D01*
X161590288Y-124498210D01*
X161459185Y-124410609D01*
X161459172Y-124410602D01*
X161313501Y-124350264D01*
X161313489Y-124350261D01*
X161158845Y-124319500D01*
X161158842Y-124319500D01*
X161001158Y-124319500D01*
X161001155Y-124319500D01*
X160846510Y-124350261D01*
X160846498Y-124350264D01*
X160700827Y-124410602D01*
X160700814Y-124410609D01*
X160569711Y-124498210D01*
X160569707Y-124498213D01*
X160458213Y-124609707D01*
X160458210Y-124609711D01*
X160370609Y-124740814D01*
X160370602Y-124740827D01*
X160310264Y-124886498D01*
X160310261Y-124886510D01*
X160279500Y-125041153D01*
X160279500Y-125198846D01*
X160310107Y-125352720D01*
X160303880Y-125422312D01*
X160276171Y-125464592D01*
X159501286Y-126239478D01*
X159389481Y-126351282D01*
X159389479Y-126351285D01*
X159342582Y-126432515D01*
X159342581Y-126432516D01*
X159319688Y-126472168D01*
X159310423Y-126488215D01*
X159269499Y-126640943D01*
X159269499Y-126640945D01*
X159269499Y-126744091D01*
X159249814Y-126811130D01*
X159205732Y-126849642D01*
X159206813Y-126851395D01*
X159200667Y-126855185D01*
X159200666Y-126855186D01*
X159102419Y-126915784D01*
X159051342Y-126947289D01*
X158957681Y-127040951D01*
X158896358Y-127074436D01*
X158826666Y-127069452D01*
X158782319Y-127040951D01*
X158688657Y-126947289D01*
X158688656Y-126947288D01*
X158566990Y-126872244D01*
X158539336Y-126855187D01*
X158539331Y-126855185D01*
X158537862Y-126854698D01*
X158372797Y-126800001D01*
X158372795Y-126800000D01*
X158270010Y-126789500D01*
X157469998Y-126789500D01*
X157469980Y-126789501D01*
X157367203Y-126800000D01*
X157367200Y-126800001D01*
X157200668Y-126855185D01*
X157200663Y-126855187D01*
X157051342Y-126947289D01*
X156927288Y-127071343D01*
X156927285Y-127071347D01*
X156908458Y-127101871D01*
X156856510Y-127148596D01*
X156787548Y-127159817D01*
X156723466Y-127131974D01*
X156697381Y-127101871D01*
X156647712Y-127021344D01*
X156523656Y-126897288D01*
X156374334Y-126805186D01*
X156207797Y-126750001D01*
X156207795Y-126750000D01*
X156105010Y-126739500D01*
X155354998Y-126739500D01*
X155354980Y-126739501D01*
X155252203Y-126750000D01*
X155252200Y-126750001D01*
X155085668Y-126805185D01*
X155085663Y-126805187D01*
X154936342Y-126897289D01*
X154812288Y-127021343D01*
X154812283Y-127021349D01*
X154810241Y-127024661D01*
X154808247Y-127026453D01*
X154807807Y-127027011D01*
X154807711Y-127026935D01*
X154758291Y-127071383D01*
X154689328Y-127082602D01*
X154625247Y-127054755D01*
X154599168Y-127024656D01*
X154597319Y-127021659D01*
X154597316Y-127021655D01*
X154473345Y-126897684D01*
X154324124Y-126805643D01*
X154324119Y-126805641D01*
X154157697Y-126750494D01*
X154157690Y-126750493D01*
X154054986Y-126740000D01*
X153930000Y-126740000D01*
X153430000Y-126740000D01*
X153305027Y-126740000D01*
X153305012Y-126740001D01*
X153202302Y-126750494D01*
X153035880Y-126805641D01*
X153035875Y-126805643D01*
X152886654Y-126897684D01*
X152762684Y-127021654D01*
X152670643Y-127170875D01*
X152670641Y-127170880D01*
X152615494Y-127337302D01*
X152615493Y-127337309D01*
X152605000Y-127440013D01*
X130466254Y-127440013D01*
X130454246Y-120485445D01*
X130473814Y-120418377D01*
X130526539Y-120372531D01*
X130595680Y-120362468D01*
X130659286Y-120391383D01*
X130665926Y-120397555D01*
X130671906Y-120403535D01*
X130671910Y-120403538D01*
X130827499Y-120507500D01*
X130827508Y-120507505D01*
X131000394Y-120579116D01*
X131000402Y-120579118D01*
X131183928Y-120615624D01*
X131183931Y-120615625D01*
X131427500Y-120615625D01*
X131427500Y-119965625D01*
X131927500Y-119965625D01*
X131927500Y-120615625D01*
X132171069Y-120615625D01*
X132171071Y-120615624D01*
X132354597Y-120579118D01*
X132354605Y-120579116D01*
X132527491Y-120507505D01*
X132527500Y-120507500D01*
X132664109Y-120416221D01*
X132730786Y-120395343D01*
X132798167Y-120413827D01*
X132844857Y-120465806D01*
X132857000Y-120519323D01*
X132857000Y-122061570D01*
X132860848Y-122080917D01*
X132870357Y-122128716D01*
X132881999Y-122187244D01*
X132931035Y-122305627D01*
X132946646Y-122328990D01*
X132951701Y-122342562D01*
X132953192Y-122363547D01*
X132959480Y-122383627D01*
X132959500Y-122385843D01*
X132959500Y-123050001D01*
X132959501Y-123050019D01*
X132970000Y-123152796D01*
X132970001Y-123152799D01*
X133025115Y-123319119D01*
X133025186Y-123319334D01*
X133117288Y-123468656D01*
X133241344Y-123592712D01*
X133390666Y-123684814D01*
X133557203Y-123739999D01*
X133659991Y-123750500D01*
X134460008Y-123750499D01*
X134460016Y-123750498D01*
X134460019Y-123750498D01*
X134516302Y-123744748D01*
X134562797Y-123739999D01*
X134729334Y-123684814D01*
X134878656Y-123592712D01*
X134972675Y-123498692D01*
X135033994Y-123465210D01*
X135103686Y-123470194D01*
X135148034Y-123498695D01*
X135241654Y-123592315D01*
X135390875Y-123684356D01*
X135390880Y-123684358D01*
X135557302Y-123739505D01*
X135557309Y-123739506D01*
X135660019Y-123749999D01*
X135809999Y-123749999D01*
X136310000Y-123749999D01*
X136459972Y-123749999D01*
X136459986Y-123749998D01*
X136562697Y-123739505D01*
X136729119Y-123684358D01*
X136729124Y-123684356D01*
X136878345Y-123592315D01*
X137002315Y-123468345D01*
X137094356Y-123319124D01*
X137094358Y-123319119D01*
X137149505Y-123152697D01*
X137149506Y-123152690D01*
X137159999Y-123049986D01*
X137160000Y-123049973D01*
X137160000Y-122800000D01*
X136310000Y-122800000D01*
X136310000Y-123749999D01*
X135809999Y-123749999D01*
X135810000Y-123749998D01*
X135810000Y-122300000D01*
X136310000Y-122300000D01*
X137159999Y-122300000D01*
X137159999Y-122050028D01*
X137159998Y-122050013D01*
X137149505Y-121947302D01*
X137094358Y-121780880D01*
X137094356Y-121780875D01*
X137002315Y-121631654D01*
X136878345Y-121507684D01*
X136729124Y-121415643D01*
X136729119Y-121415641D01*
X136562697Y-121360494D01*
X136562690Y-121360493D01*
X136459986Y-121350000D01*
X136310000Y-121350000D01*
X136310000Y-122300000D01*
X135810000Y-122300000D01*
X135810000Y-121350000D01*
X135660027Y-121350000D01*
X135660012Y-121350001D01*
X135557302Y-121360494D01*
X135390880Y-121415641D01*
X135390875Y-121415643D01*
X135241657Y-121507682D01*
X135148034Y-121601305D01*
X135086710Y-121634789D01*
X135017019Y-121629805D01*
X134972672Y-121601304D01*
X134878657Y-121507289D01*
X134878656Y-121507288D01*
X134729334Y-121415186D01*
X134562797Y-121360001D01*
X134562795Y-121360000D01*
X134460016Y-121349500D01*
X134460009Y-121349500D01*
X134282000Y-121349500D01*
X134214961Y-121329815D01*
X134169206Y-121277011D01*
X134158000Y-121225500D01*
X134158000Y-120739625D01*
X134177685Y-120672586D01*
X134230489Y-120626831D01*
X134282000Y-120615625D01*
X134807500Y-120615625D01*
X134807500Y-119965625D01*
X135307500Y-119965625D01*
X135307500Y-120615625D01*
X135901069Y-120615625D01*
X135901071Y-120615624D01*
X136084597Y-120579118D01*
X136084605Y-120579116D01*
X136257491Y-120507505D01*
X136257500Y-120507500D01*
X136413089Y-120403538D01*
X136413093Y-120403535D01*
X136545410Y-120271218D01*
X136545413Y-120271214D01*
X136649375Y-120115625D01*
X136649380Y-120115616D01*
X136720992Y-119942728D01*
X136720993Y-119942725D01*
X136726384Y-119915625D01*
X135974488Y-119915625D01*
X135991705Y-119905685D01*
X136047560Y-119849830D01*
X136087056Y-119781421D01*
X136107500Y-119705121D01*
X136107500Y-119626129D01*
X136087056Y-119549829D01*
X136047560Y-119481420D01*
X135991705Y-119425565D01*
X135974488Y-119415625D01*
X136726384Y-119415625D01*
X136726384Y-119415624D01*
X136720993Y-119388524D01*
X136720992Y-119388521D01*
X136649380Y-119215633D01*
X136649375Y-119215624D01*
X136545413Y-119060035D01*
X136545410Y-119060031D01*
X136413093Y-118927714D01*
X136413089Y-118927711D01*
X136257500Y-118823749D01*
X136257491Y-118823744D01*
X136084605Y-118752133D01*
X136084597Y-118752131D01*
X135901070Y-118715625D01*
X135307500Y-118715625D01*
X135307500Y-119365625D01*
X134807500Y-119365625D01*
X134807500Y-118715625D01*
X134282000Y-118715625D01*
X134214961Y-118695940D01*
X134169206Y-118643136D01*
X134158000Y-118591625D01*
X134158000Y-118325392D01*
X134177685Y-118258353D01*
X134230489Y-118212598D01*
X134299647Y-118202654D01*
X134329451Y-118210830D01*
X134446711Y-118259401D01*
X134446715Y-118259401D01*
X134446716Y-118259402D01*
X134606192Y-118291125D01*
X134606195Y-118291125D01*
X134768807Y-118291125D01*
X134876098Y-118269782D01*
X134928289Y-118259401D01*
X135078521Y-118197173D01*
X135108048Y-118177444D01*
X135131128Y-118162023D01*
X135197805Y-118141145D01*
X135200018Y-118141125D01*
X135524982Y-118141125D01*
X135592021Y-118160810D01*
X135593872Y-118162023D01*
X135646477Y-118197172D01*
X135646480Y-118197174D01*
X135794181Y-118258353D01*
X135796711Y-118259401D01*
X135796715Y-118259401D01*
X135796716Y-118259402D01*
X135956192Y-118291125D01*
X135956195Y-118291125D01*
X136118807Y-118291125D01*
X136226098Y-118269782D01*
X136278289Y-118259401D01*
X136428521Y-118197173D01*
X136458048Y-118177444D01*
X136481128Y-118162023D01*
X136547805Y-118141145D01*
X136550018Y-118141125D01*
X136814462Y-118141125D01*
X136881501Y-118160810D01*
X136902143Y-118177444D01*
X138205305Y-119480606D01*
X138299394Y-119574695D01*
X138299397Y-119574697D01*
X138299398Y-119574698D01*
X138410020Y-119648613D01*
X138410022Y-119648614D01*
X138410031Y-119648620D01*
X138436482Y-119659576D01*
X138436483Y-119659577D01*
X138436484Y-119659577D01*
X138532964Y-119699541D01*
X138663464Y-119725499D01*
X138663468Y-119725500D01*
X138663469Y-119725500D01*
X143948837Y-119725500D01*
X144015876Y-119745185D01*
X144036518Y-119761819D01*
X144648395Y-120373696D01*
X144681880Y-120435019D01*
X144676896Y-120504711D01*
X144671199Y-120517671D01*
X144628445Y-120601582D01*
X144562753Y-120803760D01*
X144529500Y-121013713D01*
X144529500Y-121226286D01*
X144559418Y-121415185D01*
X144562754Y-121436243D01*
X144626247Y-121631654D01*
X144628444Y-121638414D01*
X144724951Y-121827820D01*
X144849890Y-121999786D01*
X145000213Y-122150109D01*
X145172179Y-122275048D01*
X145172181Y-122275049D01*
X145172184Y-122275051D01*
X145361588Y-122371557D01*
X145563757Y-122437246D01*
X145773713Y-122470500D01*
X145773714Y-122470500D01*
X145986286Y-122470500D01*
X145986287Y-122470500D01*
X146196243Y-122437246D01*
X146398412Y-122371557D01*
X146587816Y-122275051D01*
X146673384Y-122212883D01*
X146759786Y-122150109D01*
X146759788Y-122150106D01*
X146759792Y-122150104D01*
X146910104Y-121999792D01*
X146910106Y-121999788D01*
X146910109Y-121999786D01*
X147035048Y-121827820D01*
X147035047Y-121827820D01*
X147035051Y-121827816D01*
X147039514Y-121819054D01*
X147087488Y-121768259D01*
X147155308Y-121751463D01*
X147221444Y-121773999D01*
X147260486Y-121819056D01*
X147264951Y-121827820D01*
X147389890Y-121999786D01*
X147540213Y-122150109D01*
X147712179Y-122275048D01*
X147712181Y-122275049D01*
X147712184Y-122275051D01*
X147901588Y-122371557D01*
X148103757Y-122437246D01*
X148313713Y-122470500D01*
X148313714Y-122470500D01*
X148526286Y-122470500D01*
X148526287Y-122470500D01*
X148736243Y-122437246D01*
X148938412Y-122371557D01*
X149127816Y-122275051D01*
X149213384Y-122212883D01*
X149299786Y-122150109D01*
X149299788Y-122150106D01*
X149299792Y-122150104D01*
X149450104Y-121999792D01*
X149450106Y-121999788D01*
X149450109Y-121999786D01*
X149575048Y-121827820D01*
X149575047Y-121827820D01*
X149575051Y-121827816D01*
X149579514Y-121819054D01*
X149627488Y-121768259D01*
X149695308Y-121751463D01*
X149761444Y-121773999D01*
X149800486Y-121819056D01*
X149804951Y-121827820D01*
X149929890Y-121999786D01*
X150080213Y-122150109D01*
X150252179Y-122275048D01*
X150252181Y-122275049D01*
X150252184Y-122275051D01*
X150441588Y-122371557D01*
X150643757Y-122437246D01*
X150853713Y-122470500D01*
X150853714Y-122470500D01*
X151066286Y-122470500D01*
X151066287Y-122470500D01*
X151276243Y-122437246D01*
X151478412Y-122371557D01*
X151667816Y-122275051D01*
X151753384Y-122212883D01*
X151839786Y-122150109D01*
X151839788Y-122150106D01*
X151839792Y-122150104D01*
X151990104Y-121999792D01*
X151990106Y-121999788D01*
X151990109Y-121999786D01*
X152115048Y-121827820D01*
X152115047Y-121827820D01*
X152115051Y-121827816D01*
X152211557Y-121638412D01*
X152277246Y-121436243D01*
X152310500Y-121226287D01*
X152310500Y-121013713D01*
X152277246Y-120803757D01*
X152211557Y-120601588D01*
X152115051Y-120412184D01*
X152115049Y-120412181D01*
X152115048Y-120412179D01*
X151990109Y-120240213D01*
X151839786Y-120089890D01*
X151667820Y-119964951D01*
X151478414Y-119868444D01*
X151478413Y-119868443D01*
X151478412Y-119868443D01*
X151276243Y-119802754D01*
X151276241Y-119802753D01*
X151276240Y-119802753D01*
X151114957Y-119777208D01*
X151066287Y-119769500D01*
X150853713Y-119769500D01*
X150805042Y-119777208D01*
X150643760Y-119802753D01*
X150441585Y-119868444D01*
X150252179Y-119964951D01*
X150080213Y-120089890D01*
X149929890Y-120240213D01*
X149804949Y-120412182D01*
X149800484Y-120420946D01*
X149752509Y-120471742D01*
X149684688Y-120488536D01*
X149618553Y-120465998D01*
X149579516Y-120420946D01*
X149575050Y-120412182D01*
X149450109Y-120240213D01*
X149299786Y-120089890D01*
X149127820Y-119964951D01*
X148938414Y-119868444D01*
X148938413Y-119868443D01*
X148938412Y-119868443D01*
X148736243Y-119802754D01*
X148736241Y-119802753D01*
X148736240Y-119802753D01*
X148574957Y-119777208D01*
X148526287Y-119769500D01*
X148313713Y-119769500D01*
X148265042Y-119777208D01*
X148103760Y-119802753D01*
X147901585Y-119868444D01*
X147712179Y-119964951D01*
X147540213Y-120089890D01*
X147389890Y-120240213D01*
X147264949Y-120412182D01*
X147260484Y-120420946D01*
X147212509Y-120471742D01*
X147144688Y-120488536D01*
X147078553Y-120465998D01*
X147039516Y-120420946D01*
X147035050Y-120412182D01*
X146910109Y-120240213D01*
X146759786Y-120089890D01*
X146587820Y-119964951D01*
X146398414Y-119868444D01*
X146398413Y-119868443D01*
X146398412Y-119868443D01*
X146196243Y-119802754D01*
X146196241Y-119802753D01*
X146196239Y-119802753D01*
X145988669Y-119769877D01*
X145925534Y-119739948D01*
X145920386Y-119735085D01*
X144710609Y-118525307D01*
X144710601Y-118525301D01*
X144645322Y-118481683D01*
X144600516Y-118428071D01*
X144591809Y-118358746D01*
X144621963Y-118295719D01*
X144626512Y-118290919D01*
X145463506Y-117453926D01*
X145463511Y-117453922D01*
X145473714Y-117443718D01*
X145473716Y-117443718D01*
X145585520Y-117331914D01*
X145647341Y-117224836D01*
X145664577Y-117194983D01*
X145705501Y-117042255D01*
X145705501Y-116884141D01*
X145705501Y-116876546D01*
X145705500Y-116876528D01*
X145705500Y-116652597D01*
X145725185Y-116585558D01*
X145741819Y-116564916D01*
X145842416Y-116464319D01*
X145903739Y-116430834D01*
X145930097Y-116428000D01*
X146045686Y-116428000D01*
X146045694Y-116428000D01*
X146082569Y-116425098D01*
X146082571Y-116425097D01*
X146082573Y-116425097D01*
X146136646Y-116409387D01*
X146240398Y-116379244D01*
X146381865Y-116295581D01*
X146498081Y-116179365D01*
X146581744Y-116037898D01*
X146627598Y-115880069D01*
X146630500Y-115843194D01*
X146630500Y-114816584D01*
X146650185Y-114749545D01*
X146702989Y-114703790D01*
X146772147Y-114693846D01*
X146835703Y-114722871D01*
G37*
%TD.AperFunction*%
%TA.AperFunction,Conductor*%
G36*
X175683256Y-117889465D02*
G01*
X175741118Y-117928627D01*
X175768623Y-117992855D01*
X175769500Y-118007577D01*
X175769500Y-118402870D01*
X175769501Y-118402876D01*
X175775908Y-118462481D01*
X175788659Y-118496669D01*
X175793642Y-118566361D01*
X175788659Y-118583331D01*
X175775908Y-118617518D01*
X175769501Y-118677116D01*
X175769501Y-118677123D01*
X175769500Y-118677135D01*
X175769500Y-119672870D01*
X175769501Y-119672876D01*
X175775908Y-119732481D01*
X175788659Y-119766669D01*
X175793642Y-119836361D01*
X175788659Y-119853331D01*
X175775908Y-119887518D01*
X175769973Y-119942725D01*
X175769500Y-119947127D01*
X175769500Y-120437401D01*
X175769501Y-120835500D01*
X175749817Y-120902539D01*
X175697013Y-120948294D01*
X175645501Y-120959500D01*
X175511155Y-120959500D01*
X175356510Y-120990261D01*
X175356498Y-120990264D01*
X175210827Y-121050602D01*
X175210814Y-121050609D01*
X175079711Y-121138210D01*
X175079707Y-121138213D01*
X174968213Y-121249707D01*
X174968210Y-121249711D01*
X174880609Y-121380814D01*
X174880602Y-121380827D01*
X174820264Y-121526498D01*
X174820261Y-121526510D01*
X174789500Y-121681153D01*
X174789500Y-121838846D01*
X174820261Y-121993489D01*
X174820264Y-121993501D01*
X174880602Y-122139172D01*
X174880609Y-122139185D01*
X174968210Y-122270288D01*
X174968213Y-122270292D01*
X175050240Y-122352319D01*
X175083725Y-122413642D01*
X175078741Y-122483334D01*
X175050240Y-122527681D01*
X174958213Y-122619707D01*
X174958210Y-122619711D01*
X174870609Y-122750814D01*
X174870602Y-122750827D01*
X174810264Y-122896498D01*
X174810261Y-122896510D01*
X174779500Y-123051153D01*
X174779500Y-123208846D01*
X174810261Y-123363489D01*
X174810264Y-123363501D01*
X174870602Y-123509172D01*
X174870609Y-123509185D01*
X174957008Y-123638490D01*
X174977886Y-123705168D01*
X174959401Y-123772548D01*
X174957010Y-123776269D01*
X174940610Y-123800814D01*
X174940602Y-123800828D01*
X174880264Y-123946498D01*
X174880261Y-123946510D01*
X174849500Y-124101153D01*
X174849500Y-124258846D01*
X174880261Y-124413489D01*
X174880264Y-124413501D01*
X174940602Y-124559172D01*
X174940609Y-124559185D01*
X175028210Y-124690288D01*
X175028213Y-124690292D01*
X175139707Y-124801786D01*
X175139711Y-124801789D01*
X175270814Y-124889390D01*
X175270827Y-124889397D01*
X175376902Y-124933334D01*
X175416503Y-124949737D01*
X175571153Y-124980499D01*
X175571156Y-124980500D01*
X175645500Y-124980500D01*
X175712539Y-125000185D01*
X175758294Y-125052989D01*
X175769500Y-125104500D01*
X175769500Y-126022870D01*
X175769501Y-126022876D01*
X175775908Y-126082483D01*
X175826202Y-126217328D01*
X175826206Y-126217335D01*
X175912452Y-126332544D01*
X175912453Y-126332544D01*
X175912454Y-126332546D01*
X175931591Y-126346872D01*
X176024246Y-126416234D01*
X176066116Y-126472168D01*
X176071100Y-126541859D01*
X176037614Y-126603182D01*
X175976291Y-126636667D01*
X175949934Y-126639500D01*
X174304000Y-126639500D01*
X174236961Y-126619815D01*
X174191206Y-126567011D01*
X174180000Y-126515500D01*
X174180000Y-126280000D01*
X171780000Y-126280000D01*
X171780000Y-126515500D01*
X171760315Y-126582539D01*
X171707511Y-126628294D01*
X171656000Y-126639500D01*
X171560808Y-126639500D01*
X171493769Y-126619815D01*
X171473127Y-126603181D01*
X171216818Y-126346872D01*
X171183333Y-126285549D01*
X171180499Y-126259191D01*
X171180499Y-125182155D01*
X171780000Y-125182155D01*
X171780000Y-125780000D01*
X172730000Y-125780000D01*
X173230000Y-125780000D01*
X174180000Y-125780000D01*
X174180000Y-125182172D01*
X174179999Y-125182155D01*
X174173598Y-125122627D01*
X174173596Y-125122620D01*
X174123354Y-124987913D01*
X174123350Y-124987906D01*
X174037190Y-124872812D01*
X174037187Y-124872809D01*
X173922093Y-124786649D01*
X173922086Y-124786645D01*
X173787379Y-124736403D01*
X173787372Y-124736401D01*
X173727844Y-124730000D01*
X173230000Y-124730000D01*
X173230000Y-125780000D01*
X172730000Y-125780000D01*
X172730000Y-124730000D01*
X172232155Y-124730000D01*
X172172627Y-124736401D01*
X172172620Y-124736403D01*
X172037913Y-124786645D01*
X172037906Y-124786649D01*
X171922812Y-124872809D01*
X171922809Y-124872812D01*
X171836649Y-124987906D01*
X171836645Y-124987913D01*
X171786403Y-125122620D01*
X171786401Y-125122627D01*
X171780000Y-125182155D01*
X171180499Y-125182155D01*
X171180499Y-125182129D01*
X171180498Y-125182123D01*
X171180497Y-125182116D01*
X171174091Y-125122517D01*
X171170276Y-125112289D01*
X171123797Y-124987671D01*
X171123793Y-124987664D01*
X171037547Y-124872455D01*
X171037544Y-124872452D01*
X170922335Y-124786206D01*
X170922328Y-124786202D01*
X170787483Y-124735908D01*
X170766243Y-124733625D01*
X170701692Y-124706886D01*
X170661845Y-124649493D01*
X170655500Y-124610336D01*
X170655500Y-120249663D01*
X170675185Y-120182624D01*
X170727989Y-120136869D01*
X170766248Y-120126373D01*
X170787483Y-120124091D01*
X170922331Y-120073796D01*
X171037546Y-119987546D01*
X171123796Y-119872331D01*
X171174091Y-119737483D01*
X171180500Y-119677873D01*
X171180500Y-119677844D01*
X171780000Y-119677844D01*
X171786401Y-119737372D01*
X171786403Y-119737379D01*
X171836645Y-119872086D01*
X171836649Y-119872093D01*
X171922809Y-119987187D01*
X171922812Y-119987190D01*
X172037906Y-120073350D01*
X172037913Y-120073354D01*
X172172620Y-120123596D01*
X172172627Y-120123598D01*
X172232155Y-120129999D01*
X172232172Y-120130000D01*
X172730000Y-120130000D01*
X173230000Y-120130000D01*
X173727828Y-120130000D01*
X173727844Y-120129999D01*
X173787372Y-120123598D01*
X173787379Y-120123596D01*
X173922086Y-120073354D01*
X173922093Y-120073350D01*
X174037187Y-119987190D01*
X174037190Y-119987187D01*
X174123350Y-119872093D01*
X174123354Y-119872086D01*
X174173596Y-119737379D01*
X174173598Y-119737372D01*
X174179999Y-119677844D01*
X174180000Y-119677827D01*
X174180000Y-119080000D01*
X173230000Y-119080000D01*
X173230000Y-120130000D01*
X172730000Y-120130000D01*
X172730000Y-119080000D01*
X171780000Y-119080000D01*
X171780000Y-119677844D01*
X171180500Y-119677844D01*
X171180499Y-118823752D01*
X171180499Y-118054500D01*
X171200183Y-117987461D01*
X171252987Y-117941706D01*
X171304499Y-117930500D01*
X171656000Y-117930500D01*
X171723039Y-117950185D01*
X171768794Y-118002989D01*
X171780000Y-118054500D01*
X171780000Y-118580000D01*
X174180000Y-118580000D01*
X174180000Y-118054500D01*
X174199685Y-117987461D01*
X174252489Y-117941706D01*
X174304000Y-117930500D01*
X175288331Y-117930500D01*
X175288347Y-117930501D01*
X175295943Y-117930501D01*
X175454054Y-117930501D01*
X175454057Y-117930501D01*
X175606785Y-117889577D01*
X175606787Y-117889575D01*
X175613406Y-117887802D01*
X175683256Y-117889465D01*
G37*
%TD.AperFunction*%
%TA.AperFunction,Conductor*%
G36*
X131927500Y-111965625D02*
G01*
X132171069Y-111965625D01*
X132171071Y-111965624D01*
X132354597Y-111929118D01*
X132354605Y-111929116D01*
X132527491Y-111857505D01*
X132527500Y-111857500D01*
X132614109Y-111799630D01*
X132680786Y-111778752D01*
X132748167Y-111797236D01*
X132794857Y-111849215D01*
X132807000Y-111902732D01*
X132807000Y-112217110D01*
X132832957Y-112347603D01*
X132832959Y-112347611D01*
X132883878Y-112470540D01*
X132883883Y-112470550D01*
X132957804Y-112581180D01*
X132957807Y-112581184D01*
X133919193Y-113542569D01*
X133946071Y-113582792D01*
X133950369Y-113593167D01*
X133957841Y-113662636D01*
X133950371Y-113688078D01*
X133893724Y-113824835D01*
X133893722Y-113824841D01*
X133862000Y-113984317D01*
X133862000Y-113984320D01*
X133862000Y-114146930D01*
X133862000Y-114146932D01*
X133861999Y-114146932D01*
X133893722Y-114306408D01*
X133893724Y-114306414D01*
X133950148Y-114442635D01*
X133950371Y-114443172D01*
X133957840Y-114512642D01*
X133950371Y-114538077D01*
X133939203Y-114565038D01*
X133893724Y-114674835D01*
X133893722Y-114674841D01*
X133862000Y-114834317D01*
X133862000Y-114834320D01*
X133862000Y-114996930D01*
X133862000Y-114996932D01*
X133861999Y-114996932D01*
X133893722Y-115156408D01*
X133893724Y-115156414D01*
X133940979Y-115270499D01*
X133950371Y-115293172D01*
X133957840Y-115362642D01*
X133950371Y-115388078D01*
X133893724Y-115524835D01*
X133893722Y-115524841D01*
X133862000Y-115684317D01*
X133862000Y-115684320D01*
X133862000Y-115846930D01*
X133862000Y-115846932D01*
X133861999Y-115846932D01*
X133893722Y-116006408D01*
X133893724Y-116006414D01*
X133950371Y-116143172D01*
X133957840Y-116212642D01*
X133950371Y-116238078D01*
X133896075Y-116369159D01*
X133869195Y-116409387D01*
X133002224Y-117276358D01*
X132962120Y-117336378D01*
X132962121Y-117336379D01*
X132931034Y-117382904D01*
X132881999Y-117501285D01*
X132881997Y-117501291D01*
X132857000Y-117626958D01*
X132857000Y-118811926D01*
X132837315Y-118878965D01*
X132784511Y-118924720D01*
X132715353Y-118934664D01*
X132664110Y-118915028D01*
X132527505Y-118823752D01*
X132527491Y-118823744D01*
X132354605Y-118752133D01*
X132354597Y-118752131D01*
X132171070Y-118715625D01*
X131927500Y-118715625D01*
X131927500Y-119365625D01*
X131427500Y-119365625D01*
X131427500Y-118715625D01*
X131183930Y-118715625D01*
X131000402Y-118752131D01*
X131000394Y-118752133D01*
X130827508Y-118823744D01*
X130827499Y-118823749D01*
X130671910Y-118927711D01*
X130671909Y-118927711D01*
X130663098Y-118936523D01*
X130601773Y-118970005D01*
X130532082Y-118965018D01*
X130476150Y-118923145D01*
X130451736Y-118857679D01*
X130451421Y-118849081D01*
X130439285Y-111820484D01*
X130458853Y-111753416D01*
X130511578Y-111707570D01*
X130580719Y-111697507D01*
X130644325Y-111726422D01*
X130650965Y-111732594D01*
X130671906Y-111753535D01*
X130671910Y-111753538D01*
X130827499Y-111857500D01*
X130827508Y-111857505D01*
X131000394Y-111929116D01*
X131000402Y-111929118D01*
X131183928Y-111965624D01*
X131183931Y-111965625D01*
X131427500Y-111965625D01*
X131427500Y-111315625D01*
X131927500Y-111315625D01*
X131927500Y-111965625D01*
G37*
%TD.AperFunction*%
%TA.AperFunction,Conductor*%
G36*
X143365876Y-109440185D02*
G01*
X143386518Y-109456819D01*
X144168181Y-110238482D01*
X144201666Y-110299805D01*
X144204500Y-110326163D01*
X144204500Y-111703000D01*
X144184815Y-111770039D01*
X144132011Y-111815794D01*
X144080500Y-111827000D01*
X143714298Y-111827000D01*
X143677432Y-111829901D01*
X143677426Y-111829902D01*
X143519606Y-111875754D01*
X143519603Y-111875755D01*
X143378137Y-111959417D01*
X143378129Y-111959423D01*
X143261923Y-112075629D01*
X143261917Y-112075637D01*
X143178255Y-112217103D01*
X143178254Y-112217106D01*
X143132402Y-112374926D01*
X143132401Y-112374932D01*
X143129500Y-112411798D01*
X143129500Y-113568201D01*
X143132401Y-113605067D01*
X143132402Y-113605073D01*
X143178254Y-113762893D01*
X143178255Y-113762896D01*
X143261917Y-113904362D01*
X143261923Y-113904370D01*
X143378129Y-114020576D01*
X143378140Y-114020585D01*
X143378455Y-114020771D01*
X143378650Y-114020980D01*
X143384298Y-114025361D01*
X143383591Y-114026272D01*
X143426136Y-114071843D01*
X143438637Y-114140585D01*
X143411988Y-114205173D01*
X143384078Y-114229356D01*
X143384298Y-114229639D01*
X143379092Y-114233676D01*
X143378455Y-114234229D01*
X143378140Y-114234414D01*
X143378129Y-114234423D01*
X143261923Y-114350629D01*
X143261917Y-114350637D01*
X143178255Y-114492103D01*
X143178254Y-114492106D01*
X143132402Y-114649926D01*
X143132401Y-114649932D01*
X143129500Y-114686798D01*
X143129500Y-115843201D01*
X143132401Y-115880067D01*
X143132402Y-115880073D01*
X143178254Y-116037893D01*
X143178255Y-116037896D01*
X143261917Y-116179362D01*
X143261923Y-116179370D01*
X143378129Y-116295576D01*
X143378133Y-116295579D01*
X143378135Y-116295581D01*
X143519602Y-116379244D01*
X143561224Y-116391336D01*
X143677426Y-116425097D01*
X143677429Y-116425097D01*
X143677431Y-116425098D01*
X143714306Y-116428000D01*
X143829903Y-116428000D01*
X143896942Y-116447685D01*
X143917584Y-116464319D01*
X143930234Y-116476969D01*
X143963719Y-116538292D01*
X143958735Y-116607984D01*
X143930234Y-116652331D01*
X143409386Y-117173181D01*
X143348063Y-117206666D01*
X143321705Y-117209500D01*
X140668295Y-117209500D01*
X140601256Y-117189815D01*
X140580614Y-117173181D01*
X138161412Y-114753979D01*
X138161410Y-114753976D01*
X138042539Y-114635105D01*
X138042538Y-114635104D01*
X137931336Y-114570902D01*
X137931334Y-114570900D01*
X137914183Y-114560998D01*
X137905607Y-114556047D01*
X137752879Y-114515123D01*
X137594765Y-114515123D01*
X137587169Y-114515123D01*
X137587153Y-114515124D01*
X136930404Y-114515124D01*
X136863365Y-114495439D01*
X136817610Y-114442635D01*
X136807666Y-114373477D01*
X136815840Y-114343679D01*
X136828927Y-114312083D01*
X136855802Y-114271862D01*
X139295276Y-111832389D01*
X139366465Y-111725847D01*
X139415501Y-111607464D01*
X139418248Y-111593656D01*
X139440500Y-111481789D01*
X139440500Y-111035638D01*
X139460185Y-110968599D01*
X139499401Y-110930100D01*
X139608656Y-110862712D01*
X139702675Y-110768692D01*
X139763994Y-110735210D01*
X139833686Y-110740194D01*
X139878034Y-110768695D01*
X139971654Y-110862315D01*
X140120875Y-110954356D01*
X140120880Y-110954358D01*
X140287302Y-111009505D01*
X140287309Y-111009506D01*
X140390019Y-111019999D01*
X140539999Y-111019999D01*
X141040000Y-111019999D01*
X141189972Y-111019999D01*
X141189986Y-111019998D01*
X141292697Y-111009505D01*
X141459119Y-110954358D01*
X141459124Y-110954356D01*
X141608345Y-110862315D01*
X141732315Y-110738345D01*
X141824356Y-110589124D01*
X141824358Y-110589119D01*
X141879505Y-110422697D01*
X141879506Y-110422690D01*
X141889999Y-110319986D01*
X141890000Y-110319973D01*
X141890000Y-110070000D01*
X141040000Y-110070000D01*
X141040000Y-111019999D01*
X140539999Y-111019999D01*
X140540000Y-111019998D01*
X140540000Y-109944000D01*
X140559685Y-109876961D01*
X140612489Y-109831206D01*
X140664000Y-109820000D01*
X140790000Y-109820000D01*
X140790000Y-109694000D01*
X140809685Y-109626961D01*
X140862489Y-109581206D01*
X140914000Y-109570000D01*
X141889999Y-109570000D01*
X141889999Y-109544500D01*
X141909684Y-109477461D01*
X141962488Y-109431706D01*
X142013999Y-109420500D01*
X142343469Y-109420500D01*
X143298837Y-109420500D01*
X143365876Y-109440185D01*
G37*
%TD.AperFunction*%
%TA.AperFunction,Conductor*%
G36*
X177262539Y-109045185D02*
G01*
X177308294Y-109097989D01*
X177319500Y-109149500D01*
X177319500Y-110480500D01*
X177299815Y-110547539D01*
X177247011Y-110593294D01*
X177195500Y-110604500D01*
X176222129Y-110604500D01*
X176222123Y-110604501D01*
X176162516Y-110610908D01*
X176027671Y-110661202D01*
X176027664Y-110661206D01*
X175912455Y-110747452D01*
X175912452Y-110747455D01*
X175826206Y-110862664D01*
X175826202Y-110862671D01*
X175775908Y-110997517D01*
X175769501Y-111057116D01*
X175769500Y-111057135D01*
X175769500Y-112052870D01*
X175769501Y-112052876D01*
X175776738Y-112120196D01*
X175774992Y-112120383D01*
X175771763Y-112180556D01*
X175730892Y-112237225D01*
X175686926Y-112259069D01*
X175663213Y-112265423D01*
X175663209Y-112265425D01*
X175613096Y-112294359D01*
X175613095Y-112294360D01*
X175569689Y-112319420D01*
X175526285Y-112344479D01*
X175526282Y-112344481D01*
X175414478Y-112456286D01*
X172867584Y-115003181D01*
X172806261Y-115036666D01*
X172779903Y-115039500D01*
X170570940Y-115039500D01*
X170512067Y-115055275D01*
X170479975Y-115059500D01*
X169167294Y-115059500D01*
X169100255Y-115039815D01*
X169054500Y-114987011D01*
X169044556Y-114917853D01*
X169073581Y-114854297D01*
X169079613Y-114847819D01*
X170399580Y-113527853D01*
X174865615Y-109061819D01*
X174926938Y-109028334D01*
X174953296Y-109025500D01*
X177195500Y-109025500D01*
X177262539Y-109045185D01*
G37*
%TD.AperFunction*%
%TA.AperFunction,Conductor*%
G36*
X176966942Y-105850185D02*
G01*
X176987584Y-105866819D01*
X178289923Y-107169158D01*
X178323408Y-107230481D01*
X178318424Y-107300173D01*
X178276552Y-107356106D01*
X178211088Y-107380523D01*
X178170153Y-107376615D01*
X178162257Y-107374499D01*
X178162255Y-107374499D01*
X178004141Y-107374499D01*
X177996545Y-107374499D01*
X177996529Y-107374500D01*
X174387742Y-107374500D01*
X174346821Y-107385464D01*
X174346821Y-107385465D01*
X174310113Y-107395301D01*
X174235016Y-107415423D01*
X174235011Y-107415426D01*
X174098092Y-107494475D01*
X174098084Y-107494481D01*
X173986280Y-107606286D01*
X167959386Y-113633181D01*
X167898063Y-113666666D01*
X167871705Y-113669500D01*
X167254240Y-113669500D01*
X167187201Y-113649815D01*
X167141446Y-113597011D01*
X167131502Y-113527853D01*
X167160527Y-113464297D01*
X167166559Y-113457819D01*
X167167190Y-113457187D01*
X167253350Y-113342093D01*
X167253354Y-113342086D01*
X167303596Y-113207379D01*
X167303598Y-113207372D01*
X167309999Y-113147844D01*
X167310000Y-113147827D01*
X167310000Y-112650000D01*
X164710000Y-112650000D01*
X164710000Y-113147844D01*
X164716401Y-113207372D01*
X164716403Y-113207379D01*
X164766645Y-113342086D01*
X164766649Y-113342093D01*
X164852809Y-113457187D01*
X164853441Y-113457819D01*
X164853868Y-113458602D01*
X164858125Y-113464288D01*
X164857307Y-113464899D01*
X164886926Y-113519142D01*
X164881942Y-113588834D01*
X164840070Y-113644767D01*
X164774606Y-113669184D01*
X164765760Y-113669500D01*
X160054240Y-113669500D01*
X159987201Y-113649815D01*
X159941446Y-113597011D01*
X159931502Y-113527853D01*
X159960527Y-113464297D01*
X159966559Y-113457819D01*
X159967190Y-113457187D01*
X160053350Y-113342093D01*
X160053354Y-113342086D01*
X160103596Y-113207379D01*
X160103598Y-113207372D01*
X160109999Y-113147844D01*
X160110000Y-113147827D01*
X160110000Y-112650000D01*
X157510000Y-112650000D01*
X157510000Y-113147844D01*
X157516401Y-113207372D01*
X157516403Y-113207379D01*
X157566645Y-113342086D01*
X157566649Y-113342093D01*
X157652809Y-113457187D01*
X157653441Y-113457819D01*
X157653868Y-113458602D01*
X157658125Y-113464288D01*
X157657307Y-113464899D01*
X157686926Y-113519142D01*
X157681942Y-113588834D01*
X157640070Y-113644767D01*
X157574606Y-113669184D01*
X157565760Y-113669500D01*
X148098295Y-113669500D01*
X148031256Y-113649815D01*
X148010614Y-113633181D01*
X147005788Y-112628355D01*
X147005786Y-112628352D01*
X146886915Y-112509481D01*
X146886914Y-112509480D01*
X146794775Y-112456284D01*
X146749982Y-112430422D01*
X146702236Y-112417628D01*
X146642576Y-112381262D01*
X146615256Y-112332449D01*
X146581745Y-112217106D01*
X146581744Y-112217103D01*
X146581744Y-112217102D01*
X146498081Y-112075635D01*
X146498079Y-112075633D01*
X146498076Y-112075629D01*
X146381870Y-111959423D01*
X146381862Y-111959417D01*
X146240396Y-111875755D01*
X146240393Y-111875754D01*
X146082573Y-111829902D01*
X146082567Y-111829901D01*
X146045701Y-111827000D01*
X146045694Y-111827000D01*
X145679500Y-111827000D01*
X145612461Y-111807315D01*
X145566706Y-111754511D01*
X145555500Y-111703000D01*
X145555500Y-111174986D01*
X153275001Y-111174986D01*
X153285494Y-111277697D01*
X153340641Y-111444119D01*
X153340643Y-111444124D01*
X153432684Y-111593345D01*
X153556654Y-111717315D01*
X153705875Y-111809356D01*
X153705880Y-111809358D01*
X153872302Y-111864505D01*
X153872309Y-111864506D01*
X153975019Y-111874999D01*
X154112499Y-111874999D01*
X154112500Y-111874998D01*
X154112500Y-110900000D01*
X153275001Y-110900000D01*
X153275001Y-111174986D01*
X145555500Y-111174986D01*
X145555500Y-109928470D01*
X145555500Y-109928469D01*
X145552645Y-109914117D01*
X145558871Y-109844528D01*
X145601732Y-109789350D01*
X145667621Y-109766103D01*
X145735618Y-109782169D01*
X145761943Y-109802244D01*
X146690305Y-110730606D01*
X146784394Y-110824695D01*
X146784397Y-110824697D01*
X146784398Y-110824698D01*
X146895020Y-110898613D01*
X146895023Y-110898614D01*
X146895031Y-110898620D01*
X146895037Y-110898622D01*
X146895038Y-110898623D01*
X146917836Y-110908066D01*
X147017964Y-110949540D01*
X147017968Y-110949540D01*
X147017969Y-110949541D01*
X147148466Y-110975500D01*
X147148469Y-110975500D01*
X152206532Y-110975500D01*
X152206533Y-110975499D01*
X152337036Y-110949541D01*
X152459969Y-110898620D01*
X152570606Y-110824695D01*
X152572715Y-110822586D01*
X152634345Y-110760957D01*
X152937757Y-110457544D01*
X153063321Y-110331979D01*
X153124642Y-110298496D01*
X153194333Y-110303480D01*
X153250267Y-110345351D01*
X153268062Y-110393062D01*
X153275000Y-110400000D01*
X154112500Y-110400000D01*
X154112500Y-109411214D01*
X154095596Y-109380257D01*
X154100580Y-109310565D01*
X154129077Y-109266223D01*
X154763482Y-108631819D01*
X154824805Y-108598334D01*
X154851163Y-108595500D01*
X157266878Y-108595500D01*
X157333917Y-108615185D01*
X157379672Y-108667989D01*
X157389616Y-108737147D01*
X157360591Y-108800703D01*
X157335769Y-108822602D01*
X157256894Y-108875304D01*
X157256890Y-108875307D01*
X156744016Y-109388181D01*
X156682693Y-109421666D01*
X156656335Y-109424500D01*
X156049998Y-109424500D01*
X156049980Y-109424501D01*
X155947203Y-109435000D01*
X155947200Y-109435001D01*
X155780668Y-109490185D01*
X155780663Y-109490187D01*
X155631342Y-109582289D01*
X155507288Y-109706343D01*
X155507283Y-109706349D01*
X155505241Y-109709661D01*
X155503247Y-109711453D01*
X155502807Y-109712011D01*
X155502711Y-109711935D01*
X155453291Y-109756383D01*
X155384328Y-109767602D01*
X155320247Y-109739755D01*
X155294168Y-109709656D01*
X155292319Y-109706659D01*
X155292316Y-109706655D01*
X155168345Y-109582684D01*
X155019124Y-109490643D01*
X155019119Y-109490641D01*
X154852697Y-109435494D01*
X154852690Y-109435493D01*
X154749986Y-109425000D01*
X154612500Y-109425000D01*
X154612500Y-111874999D01*
X154749972Y-111874999D01*
X154749986Y-111874998D01*
X154852697Y-111864505D01*
X155019119Y-111809358D01*
X155019124Y-111809356D01*
X155168345Y-111717315D01*
X155292318Y-111593342D01*
X155294165Y-111590348D01*
X155295969Y-111588724D01*
X155296798Y-111587677D01*
X155296976Y-111587818D01*
X155346110Y-111543621D01*
X155415073Y-111532396D01*
X155479156Y-111560236D01*
X155505243Y-111590341D01*
X155507288Y-111593656D01*
X155631344Y-111717712D01*
X155780666Y-111809814D01*
X155947203Y-111864999D01*
X156049991Y-111875500D01*
X156825008Y-111875499D01*
X156825016Y-111875498D01*
X156825019Y-111875498D01*
X156881302Y-111869748D01*
X156927797Y-111864999D01*
X157094334Y-111809814D01*
X157243656Y-111717712D01*
X157298319Y-111663049D01*
X157359642Y-111629564D01*
X157429334Y-111634548D01*
X157485267Y-111676420D01*
X157509684Y-111741884D01*
X157510000Y-111750730D01*
X157510000Y-112150000D01*
X158560000Y-112150000D01*
X159060000Y-112150000D01*
X160110000Y-112150000D01*
X160110000Y-111652172D01*
X160109999Y-111652155D01*
X164710000Y-111652155D01*
X164710000Y-112150000D01*
X165760000Y-112150000D01*
X166260000Y-112150000D01*
X167310000Y-112150000D01*
X167310000Y-111652172D01*
X167309999Y-111652155D01*
X167303598Y-111592627D01*
X167303596Y-111592620D01*
X167253354Y-111457913D01*
X167253350Y-111457906D01*
X167167190Y-111342812D01*
X167167187Y-111342809D01*
X167052093Y-111256649D01*
X167052086Y-111256645D01*
X166917379Y-111206403D01*
X166917372Y-111206401D01*
X166857844Y-111200000D01*
X166260000Y-111200000D01*
X166260000Y-112150000D01*
X165760000Y-112150000D01*
X165760000Y-111200000D01*
X165162155Y-111200000D01*
X165102627Y-111206401D01*
X165102620Y-111206403D01*
X164967913Y-111256645D01*
X164967906Y-111256649D01*
X164852812Y-111342809D01*
X164852809Y-111342812D01*
X164766649Y-111457906D01*
X164766645Y-111457913D01*
X164716403Y-111592620D01*
X164716401Y-111592627D01*
X164710000Y-111652155D01*
X160109999Y-111652155D01*
X160103598Y-111592627D01*
X160103596Y-111592620D01*
X160053354Y-111457913D01*
X160053350Y-111457906D01*
X159967190Y-111342812D01*
X159967187Y-111342809D01*
X159852093Y-111256649D01*
X159852086Y-111256645D01*
X159717379Y-111206403D01*
X159717372Y-111206401D01*
X159657844Y-111200000D01*
X159060000Y-111200000D01*
X159060000Y-112150000D01*
X158560000Y-112150000D01*
X158560000Y-111200000D01*
X157962155Y-111200000D01*
X157902627Y-111206401D01*
X157902620Y-111206403D01*
X157767913Y-111256645D01*
X157767910Y-111256647D01*
X157722808Y-111290411D01*
X157657344Y-111314828D01*
X157589071Y-111299976D01*
X157539665Y-111250571D01*
X157524813Y-111182298D01*
X157525140Y-111178537D01*
X157525498Y-111175025D01*
X157525500Y-111175009D01*
X157525499Y-110610229D01*
X157545183Y-110543191D01*
X157597987Y-110497436D01*
X157667146Y-110487492D01*
X157723810Y-110510963D01*
X157767669Y-110543796D01*
X157767671Y-110543797D01*
X157902517Y-110594091D01*
X157902516Y-110594091D01*
X157909444Y-110594835D01*
X157962127Y-110600500D01*
X159657872Y-110600499D01*
X159717483Y-110594091D01*
X159852331Y-110543796D01*
X159967546Y-110457546D01*
X160053796Y-110342331D01*
X160104091Y-110207483D01*
X160106375Y-110186243D01*
X160133114Y-110121692D01*
X160190507Y-110081845D01*
X160229664Y-110075500D01*
X164590336Y-110075500D01*
X164657375Y-110095185D01*
X164703130Y-110147989D01*
X164713626Y-110186246D01*
X164715909Y-110207483D01*
X164766202Y-110342328D01*
X164766206Y-110342335D01*
X164852452Y-110457544D01*
X164852455Y-110457547D01*
X164967664Y-110543793D01*
X164967671Y-110543797D01*
X165102517Y-110594091D01*
X165102516Y-110594091D01*
X165109444Y-110594835D01*
X165162127Y-110600500D01*
X166857872Y-110600499D01*
X166917483Y-110594091D01*
X167052331Y-110543796D01*
X167167546Y-110457546D01*
X167253796Y-110342331D01*
X167298987Y-110221166D01*
X167340858Y-110165234D01*
X167406322Y-110140816D01*
X167415169Y-110140500D01*
X169704071Y-110140500D01*
X169788615Y-110123682D01*
X169829744Y-110115501D01*
X169948127Y-110066465D01*
X169973456Y-110049541D01*
X169973457Y-110049541D01*
X170034227Y-110008935D01*
X170054669Y-109995277D01*
X171430276Y-108619670D01*
X171430277Y-108619669D01*
X172993127Y-107056819D01*
X173054450Y-107023334D01*
X173080808Y-107020500D01*
X173415065Y-107020500D01*
X173482104Y-107040185D01*
X173483909Y-107041366D01*
X173540821Y-107079394D01*
X173540823Y-107079395D01*
X173540827Y-107079397D01*
X173668828Y-107132416D01*
X173686503Y-107139737D01*
X173832285Y-107168735D01*
X173841153Y-107170499D01*
X173841156Y-107170500D01*
X173841158Y-107170500D01*
X173998844Y-107170500D01*
X173998845Y-107170499D01*
X174153497Y-107139737D01*
X174299179Y-107079394D01*
X174430289Y-106991789D01*
X174541789Y-106880289D01*
X174629394Y-106749179D01*
X174689737Y-106603497D01*
X174720500Y-106448842D01*
X174720500Y-106291158D01*
X174720500Y-106291155D01*
X174720499Y-106291153D01*
X174706242Y-106219480D01*
X174689737Y-106136503D01*
X174673459Y-106097203D01*
X174634005Y-106001952D01*
X174626536Y-105932483D01*
X174657811Y-105870004D01*
X174717900Y-105834352D01*
X174748566Y-105830500D01*
X176899903Y-105830500D01*
X176966942Y-105850185D01*
G37*
%TD.AperFunction*%
%TA.AperFunction,Conductor*%
G36*
X137632539Y-109440185D02*
G01*
X137678294Y-109492989D01*
X137689500Y-109544500D01*
X137689500Y-110320001D01*
X137689501Y-110320019D01*
X137700000Y-110422796D01*
X137700001Y-110422799D01*
X137755185Y-110589331D01*
X137755187Y-110589336D01*
X137762073Y-110600500D01*
X137847288Y-110738656D01*
X137971344Y-110862712D01*
X138080597Y-110930099D01*
X138127321Y-110982047D01*
X138139500Y-111035638D01*
X138139500Y-111096912D01*
X138119815Y-111163951D01*
X138103181Y-111184593D01*
X136725379Y-112562394D01*
X136664056Y-112595879D01*
X136594364Y-112590895D01*
X136569586Y-112576610D01*
X136568791Y-112577801D01*
X136428523Y-112484077D01*
X136428519Y-112484075D01*
X136278293Y-112421850D01*
X136278283Y-112421847D01*
X136118807Y-112390125D01*
X136118805Y-112390125D01*
X135956195Y-112390125D01*
X135956193Y-112390125D01*
X135796716Y-112421847D01*
X135796706Y-112421850D01*
X135646480Y-112484075D01*
X135646477Y-112484077D01*
X135593872Y-112519227D01*
X135527195Y-112540105D01*
X135524982Y-112540125D01*
X135200018Y-112540125D01*
X135132979Y-112520440D01*
X135131128Y-112519227D01*
X135078522Y-112484077D01*
X135078519Y-112484075D01*
X134928293Y-112421850D01*
X134928283Y-112421847D01*
X134768807Y-112390125D01*
X134768805Y-112390125D01*
X134728713Y-112390125D01*
X134661674Y-112370440D01*
X134641032Y-112353806D01*
X134464532Y-112177306D01*
X134431047Y-112115983D01*
X134436031Y-112046291D01*
X134477903Y-111990358D01*
X134543367Y-111965941D01*
X134552213Y-111965625D01*
X134807500Y-111965625D01*
X134807500Y-111315625D01*
X135307500Y-111315625D01*
X135307500Y-111965625D01*
X135901069Y-111965625D01*
X135901071Y-111965624D01*
X136084597Y-111929118D01*
X136084605Y-111929116D01*
X136257491Y-111857505D01*
X136257500Y-111857500D01*
X136413089Y-111753538D01*
X136413093Y-111753535D01*
X136545410Y-111621218D01*
X136545413Y-111621214D01*
X136649375Y-111465625D01*
X136649380Y-111465616D01*
X136720992Y-111292728D01*
X136720993Y-111292725D01*
X136726384Y-111265625D01*
X135974488Y-111265625D01*
X135991705Y-111255685D01*
X136047560Y-111199830D01*
X136087056Y-111131421D01*
X136107500Y-111055121D01*
X136107500Y-110976129D01*
X136087056Y-110899829D01*
X136047560Y-110831420D01*
X135991705Y-110775565D01*
X135974488Y-110765625D01*
X136726384Y-110765625D01*
X136726384Y-110765624D01*
X136720993Y-110738524D01*
X136720992Y-110738521D01*
X136649380Y-110565633D01*
X136649375Y-110565624D01*
X136545413Y-110410035D01*
X136545410Y-110410031D01*
X136413093Y-110277714D01*
X136413089Y-110277711D01*
X136257500Y-110173749D01*
X136257491Y-110173744D01*
X136084605Y-110102133D01*
X136084597Y-110102131D01*
X135901070Y-110065625D01*
X135345437Y-110065625D01*
X135278398Y-110045940D01*
X135232643Y-109993136D01*
X135222699Y-109923978D01*
X135251724Y-109860422D01*
X135257756Y-109853944D01*
X135654881Y-109456819D01*
X135716204Y-109423334D01*
X135742562Y-109420500D01*
X137565500Y-109420500D01*
X137632539Y-109440185D01*
G37*
%TD.AperFunction*%
%TA.AperFunction,Conductor*%
G36*
X195580017Y-98843130D02*
G01*
X195647048Y-98862828D01*
X195692791Y-98915642D01*
X195703984Y-98966439D01*
X195718832Y-101635297D01*
X195699521Y-101702445D01*
X195646972Y-101748493D01*
X195577870Y-101758821D01*
X195514154Y-101730150D01*
X195491731Y-101704877D01*
X195489702Y-101701840D01*
X195444695Y-101634482D01*
X195350606Y-101540393D01*
X194910165Y-101099952D01*
X194454271Y-100644057D01*
X194454267Y-100644054D01*
X194343637Y-100570133D01*
X194343627Y-100570128D01*
X194220698Y-100519209D01*
X194220690Y-100519207D01*
X194090197Y-100493250D01*
X194090193Y-100493250D01*
X167846531Y-100493250D01*
X165280281Y-100493250D01*
X165147219Y-100493250D01*
X165147214Y-100493250D01*
X165016721Y-100519206D01*
X165016717Y-100519208D01*
X165016715Y-100519208D01*
X165016714Y-100519209D01*
X164973250Y-100537212D01*
X164929784Y-100555216D01*
X164929783Y-100555215D01*
X164893784Y-100570128D01*
X164783141Y-100644056D01*
X164420266Y-101006931D01*
X164358943Y-101040416D01*
X164332585Y-101043250D01*
X163090879Y-101043250D01*
X163090873Y-101043251D01*
X163031266Y-101049658D01*
X162896421Y-101099952D01*
X162896414Y-101099956D01*
X162781205Y-101186202D01*
X162781202Y-101186205D01*
X162694956Y-101301414D01*
X162694952Y-101301421D01*
X162644658Y-101436267D01*
X162642742Y-101454093D01*
X162638250Y-101495877D01*
X162638250Y-102104867D01*
X162638251Y-102660500D01*
X162618566Y-102727539D01*
X162565763Y-102773294D01*
X162514251Y-102784500D01*
X159461928Y-102784500D01*
X159394889Y-102764815D01*
X159349134Y-102712011D01*
X159344225Y-102699513D01*
X159309814Y-102595666D01*
X159217712Y-102446344D01*
X159093656Y-102322288D01*
X158944334Y-102230186D01*
X158777797Y-102175001D01*
X158777795Y-102175000D01*
X158675010Y-102164500D01*
X157684998Y-102164500D01*
X157684980Y-102164501D01*
X157582203Y-102175000D01*
X157582200Y-102175001D01*
X157415668Y-102230185D01*
X157415663Y-102230187D01*
X157266342Y-102322289D01*
X157242951Y-102345681D01*
X157181628Y-102379166D01*
X157155270Y-102382000D01*
X156734499Y-102382000D01*
X156667460Y-102362315D01*
X156621705Y-102309511D01*
X156610499Y-102258000D01*
X156610499Y-101949471D01*
X156610499Y-101949464D01*
X156599886Y-101830082D01*
X156543909Y-101634451D01*
X156449698Y-101454093D01*
X156391705Y-101382970D01*
X156321109Y-101296390D01*
X156205933Y-101202477D01*
X156163407Y-101167802D01*
X155983049Y-101073591D01*
X155983048Y-101073590D01*
X155983045Y-101073589D01*
X155865829Y-101040050D01*
X155787418Y-101017614D01*
X155787415Y-101017613D01*
X155787413Y-101017613D01*
X155721102Y-101011717D01*
X155668037Y-101007000D01*
X155668032Y-101007000D01*
X154551971Y-101007000D01*
X154551965Y-101007000D01*
X154551964Y-101007001D01*
X154540316Y-101008036D01*
X154432584Y-101017613D01*
X154236954Y-101073589D01*
X154146772Y-101120696D01*
X154056593Y-101167802D01*
X154056591Y-101167803D01*
X154056590Y-101167804D01*
X153898890Y-101296390D01*
X153770304Y-101454090D01*
X153676089Y-101634454D01*
X153620114Y-101830083D01*
X153620113Y-101830086D01*
X153612721Y-101913230D01*
X153610633Y-101936727D01*
X153609500Y-101949466D01*
X153609500Y-102608000D01*
X153589815Y-102675039D01*
X153537011Y-102720794D01*
X153485500Y-102732000D01*
X150340139Y-102732000D01*
X150273100Y-102712315D01*
X150229051Y-102663094D01*
X150177032Y-102558207D01*
X150177030Y-102558204D01*
X150057724Y-102409780D01*
X150057722Y-102409778D01*
X149988112Y-102353824D01*
X149948196Y-102296485D01*
X149945616Y-102226663D01*
X149981194Y-102166530D01*
X149988115Y-102160533D01*
X150057366Y-102104867D01*
X150057367Y-102104866D01*
X150176607Y-101956525D01*
X150176609Y-101956522D01*
X150261168Y-101786023D01*
X150307102Y-101601324D01*
X150310000Y-101558596D01*
X150310000Y-101357500D01*
X147310000Y-101357500D01*
X147310000Y-101558596D01*
X147312897Y-101601324D01*
X147358831Y-101786023D01*
X147443390Y-101956522D01*
X147443392Y-101956525D01*
X147562630Y-102104864D01*
X147631884Y-102160531D01*
X147671803Y-102217875D01*
X147674383Y-102287697D01*
X147638805Y-102347829D01*
X147631885Y-102353826D01*
X147611897Y-102369893D01*
X147579107Y-102396251D01*
X147562276Y-102409780D01*
X147442969Y-102558204D01*
X147442967Y-102558207D01*
X147358360Y-102728803D01*
X147358357Y-102728811D01*
X147331072Y-102838525D01*
X147298419Y-102896279D01*
X145351516Y-104843181D01*
X145290193Y-104876666D01*
X145263835Y-104879500D01*
X144669998Y-104879500D01*
X144669980Y-104879501D01*
X144567203Y-104890000D01*
X144567200Y-104890001D01*
X144400668Y-104945185D01*
X144400663Y-104945187D01*
X144251342Y-105037289D01*
X144157681Y-105130951D01*
X144096358Y-105164436D01*
X144026666Y-105159452D01*
X143982319Y-105130951D01*
X143888657Y-105037289D01*
X143888656Y-105037288D01*
X143739334Y-104945186D01*
X143572797Y-104890001D01*
X143572795Y-104890000D01*
X143470010Y-104879500D01*
X142669998Y-104879500D01*
X142669980Y-104879501D01*
X142567203Y-104890000D01*
X142567200Y-104890001D01*
X142400668Y-104945185D01*
X142400663Y-104945187D01*
X142251342Y-105037289D01*
X142127289Y-105161342D01*
X142118103Y-105176235D01*
X142101790Y-105202684D01*
X142100539Y-105204712D01*
X142048591Y-105251436D01*
X141979628Y-105262659D01*
X141915546Y-105234815D01*
X141889461Y-105204712D01*
X141862712Y-105161344D01*
X141738656Y-105037288D01*
X141589334Y-104945186D01*
X141422797Y-104890001D01*
X141422795Y-104890000D01*
X141320010Y-104879500D01*
X140569998Y-104879500D01*
X140569980Y-104879501D01*
X140467203Y-104890000D01*
X140467200Y-104890001D01*
X140300668Y-104945185D01*
X140300663Y-104945187D01*
X140151342Y-105037289D01*
X140027288Y-105161343D01*
X140027283Y-105161349D01*
X140025241Y-105164661D01*
X140023247Y-105166453D01*
X140022807Y-105167011D01*
X140022711Y-105166935D01*
X139973291Y-105211383D01*
X139904328Y-105222602D01*
X139840247Y-105194755D01*
X139814168Y-105164656D01*
X139812319Y-105161659D01*
X139812316Y-105161655D01*
X139688345Y-105037684D01*
X139539124Y-104945643D01*
X139539119Y-104945641D01*
X139372697Y-104890494D01*
X139372690Y-104890493D01*
X139269986Y-104880000D01*
X139145000Y-104880000D01*
X139145000Y-107279999D01*
X139269972Y-107279999D01*
X139269986Y-107279998D01*
X139372697Y-107269505D01*
X139539119Y-107214358D01*
X139539124Y-107214356D01*
X139688345Y-107122315D01*
X139812318Y-106998342D01*
X139814165Y-106995348D01*
X139815969Y-106993724D01*
X139816798Y-106992677D01*
X139816976Y-106992818D01*
X139866110Y-106948621D01*
X139935073Y-106937396D01*
X139999156Y-106965236D01*
X140025243Y-106995341D01*
X140027288Y-106998656D01*
X140151344Y-107122712D01*
X140300666Y-107214814D01*
X140467203Y-107269999D01*
X140569991Y-107280500D01*
X141320008Y-107280499D01*
X141320016Y-107280498D01*
X141320019Y-107280498D01*
X141376302Y-107274748D01*
X141422797Y-107269999D01*
X141589334Y-107214814D01*
X141738656Y-107122712D01*
X141862712Y-106998656D01*
X141889461Y-106955287D01*
X141941408Y-106908563D01*
X142010370Y-106897340D01*
X142074453Y-106925183D01*
X142100537Y-106955286D01*
X142114800Y-106978411D01*
X142125247Y-106995348D01*
X142127288Y-106998656D01*
X142251344Y-107122712D01*
X142400666Y-107214814D01*
X142567203Y-107269999D01*
X142669991Y-107280500D01*
X143470008Y-107280499D01*
X143470016Y-107280498D01*
X143470019Y-107280498D01*
X143526302Y-107274748D01*
X143572797Y-107269999D01*
X143739334Y-107214814D01*
X143888656Y-107122712D01*
X143982319Y-107029049D01*
X144043642Y-106995564D01*
X144113334Y-107000548D01*
X144157681Y-107029049D01*
X144251344Y-107122712D01*
X144400666Y-107214814D01*
X144567203Y-107269999D01*
X144669991Y-107280500D01*
X145470008Y-107280499D01*
X145470016Y-107280498D01*
X145470019Y-107280498D01*
X145526302Y-107274748D01*
X145572797Y-107269999D01*
X145739334Y-107214814D01*
X145888656Y-107122712D01*
X146012712Y-106998656D01*
X146104814Y-106849334D01*
X146159999Y-106682797D01*
X146170500Y-106580009D01*
X146170499Y-105986161D01*
X146190183Y-105919123D01*
X146206813Y-105898486D01*
X147135861Y-104969438D01*
X147197182Y-104935955D01*
X147266874Y-104940939D01*
X147322807Y-104982811D01*
X147347224Y-105048275D01*
X147343875Y-105087047D01*
X147312400Y-105213606D01*
X147309500Y-105256379D01*
X147309500Y-106158622D01*
X147309501Y-106158625D01*
X147312399Y-106201386D01*
X147312399Y-106201387D01*
X147358360Y-106386196D01*
X147442967Y-106556792D01*
X147442969Y-106556795D01*
X147562277Y-106705221D01*
X147562278Y-106705222D01*
X147710704Y-106824530D01*
X147710707Y-106824532D01*
X147796005Y-106866835D01*
X147881307Y-106909141D01*
X147950427Y-106926330D01*
X148010733Y-106961611D01*
X148042392Y-107023896D01*
X148044500Y-107046664D01*
X148044500Y-107318836D01*
X148024815Y-107385875D01*
X148008181Y-107406517D01*
X147526517Y-107888181D01*
X147465194Y-107921666D01*
X147438836Y-107924500D01*
X146654998Y-107924500D01*
X146654980Y-107924501D01*
X146552203Y-107935000D01*
X146552200Y-107935001D01*
X146385668Y-107990185D01*
X146385659Y-107990189D01*
X146287006Y-108051039D01*
X146221910Y-108069500D01*
X135344866Y-108069500D01*
X135214368Y-108095458D01*
X135214358Y-108095461D01*
X135091437Y-108146376D01*
X135091419Y-108146386D01*
X134980797Y-108220301D01*
X134980789Y-108220307D01*
X132957807Y-110243289D01*
X132957802Y-110243295D01*
X132917925Y-110302975D01*
X132864313Y-110347779D01*
X132794988Y-110356486D01*
X132731960Y-110326331D01*
X132727143Y-110321764D01*
X132683093Y-110277714D01*
X132683089Y-110277711D01*
X132527500Y-110173749D01*
X132527491Y-110173744D01*
X132354605Y-110102133D01*
X132354597Y-110102131D01*
X132171070Y-110065625D01*
X131927500Y-110065625D01*
X131927500Y-110715625D01*
X131427500Y-110715625D01*
X131427500Y-110065625D01*
X131183930Y-110065625D01*
X131000402Y-110102131D01*
X131000394Y-110102133D01*
X130827508Y-110173744D01*
X130827499Y-110173749D01*
X130671910Y-110277711D01*
X130648190Y-110301431D01*
X130586866Y-110334915D01*
X130517174Y-110329929D01*
X130461242Y-110288057D01*
X130436826Y-110222592D01*
X130436511Y-110214008D01*
X130430237Y-106579986D01*
X137820001Y-106579986D01*
X137830494Y-106682697D01*
X137885641Y-106849119D01*
X137885643Y-106849124D01*
X137977684Y-106998345D01*
X138101654Y-107122315D01*
X138250875Y-107214356D01*
X138250880Y-107214358D01*
X138417302Y-107269505D01*
X138417309Y-107269506D01*
X138520019Y-107279999D01*
X138644999Y-107279999D01*
X138645000Y-107279998D01*
X138645000Y-106330000D01*
X137820001Y-106330000D01*
X137820001Y-106579986D01*
X130430237Y-106579986D01*
X130428510Y-105580013D01*
X137820000Y-105580013D01*
X137820000Y-105830000D01*
X138645000Y-105830000D01*
X138645000Y-104880000D01*
X138520027Y-104880000D01*
X138520012Y-104880001D01*
X138417302Y-104890494D01*
X138250880Y-104945641D01*
X138250875Y-104945643D01*
X138101654Y-105037684D01*
X137977684Y-105161654D01*
X137885643Y-105310875D01*
X137885641Y-105310880D01*
X137830494Y-105477302D01*
X137830493Y-105477309D01*
X137820000Y-105580013D01*
X130428510Y-105580013D01*
X130421476Y-101505950D01*
X130441045Y-101438879D01*
X130493770Y-101393033D01*
X130562911Y-101382970D01*
X130626517Y-101411885D01*
X130633157Y-101418057D01*
X130767463Y-101552363D01*
X130973205Y-101701843D01*
X131085031Y-101758821D01*
X131199794Y-101817296D01*
X131199796Y-101817296D01*
X131199799Y-101817298D01*
X131441664Y-101895885D01*
X131692844Y-101935668D01*
X131692845Y-101935668D01*
X131947155Y-101935668D01*
X131947156Y-101935668D01*
X132198336Y-101895885D01*
X132440201Y-101817298D01*
X132666795Y-101701843D01*
X132872537Y-101552363D01*
X133052363Y-101372537D01*
X133201843Y-101166795D01*
X133317298Y-100940201D01*
X133395885Y-100698336D01*
X133402526Y-100656403D01*
X147310000Y-100656403D01*
X147310000Y-100857500D01*
X148560000Y-100857500D01*
X149060000Y-100857500D01*
X150310000Y-100857500D01*
X150310000Y-100656403D01*
X150307102Y-100613675D01*
X150261168Y-100428976D01*
X150176609Y-100258477D01*
X150176607Y-100258474D01*
X150057367Y-100110133D01*
X150057366Y-100110132D01*
X149909025Y-99990892D01*
X149909022Y-99990890D01*
X149738523Y-99906331D01*
X149553824Y-99860397D01*
X149511097Y-99857500D01*
X149060000Y-99857500D01*
X149060000Y-100857500D01*
X148560000Y-100857500D01*
X148560000Y-99857500D01*
X148108903Y-99857500D01*
X148066175Y-99860397D01*
X147881476Y-99906331D01*
X147710977Y-99990890D01*
X147710974Y-99990892D01*
X147562633Y-100110132D01*
X147562632Y-100110133D01*
X147443392Y-100258474D01*
X147443390Y-100258477D01*
X147358831Y-100428976D01*
X147312897Y-100613675D01*
X147310000Y-100656403D01*
X133402526Y-100656403D01*
X133404482Y-100644055D01*
X133405932Y-100634904D01*
X133405932Y-100634902D01*
X133435668Y-100447156D01*
X133435668Y-100192844D01*
X133422568Y-100110133D01*
X133395885Y-99941664D01*
X133317298Y-99699799D01*
X133317296Y-99699796D01*
X133317296Y-99699794D01*
X133275411Y-99617591D01*
X133201843Y-99473205D01*
X133052363Y-99267463D01*
X132872537Y-99087637D01*
X132826098Y-99053897D01*
X132783433Y-98998568D01*
X132777454Y-98928955D01*
X132810059Y-98867160D01*
X132870898Y-98832803D01*
X132899008Y-98829580D01*
X195580017Y-98843130D01*
G37*
%TD.AperFunction*%
%TA.AperFunction,Conductor*%
G36*
X156927540Y-103752685D02*
G01*
X156973295Y-103805489D01*
X156984501Y-103857000D01*
X156984501Y-104055018D01*
X156995000Y-104157796D01*
X156995001Y-104157799D01*
X157050185Y-104324331D01*
X157050187Y-104324336D01*
X157069930Y-104356344D01*
X157142288Y-104473656D01*
X157266344Y-104597712D01*
X157415666Y-104689814D01*
X157582203Y-104744999D01*
X157684991Y-104755500D01*
X158675008Y-104755499D01*
X158675016Y-104755498D01*
X158675019Y-104755498D01*
X158731302Y-104749748D01*
X158777797Y-104744999D01*
X158944334Y-104689814D01*
X159093656Y-104597712D01*
X159217712Y-104473656D01*
X159309814Y-104324334D01*
X159344223Y-104220494D01*
X159383995Y-104163051D01*
X159448510Y-104136228D01*
X159461928Y-104135500D01*
X162989032Y-104135500D01*
X162989033Y-104135499D01*
X163119536Y-104109541D01*
X163242469Y-104058620D01*
X163353106Y-103984695D01*
X163557233Y-103780566D01*
X163618554Y-103747083D01*
X163644913Y-103744249D01*
X163923587Y-103744249D01*
X163990626Y-103763934D01*
X164036381Y-103816738D01*
X164046325Y-103885896D01*
X164017300Y-103949452D01*
X164011268Y-103955930D01*
X160759018Y-107208181D01*
X160697695Y-107241666D01*
X160671337Y-107244500D01*
X159467698Y-107244500D01*
X159400659Y-107224815D01*
X159354904Y-107172011D01*
X159344960Y-107102853D01*
X159349992Y-107081497D01*
X159364504Y-107037700D01*
X159364506Y-107037690D01*
X159374999Y-106934986D01*
X159375000Y-106934973D01*
X159375000Y-106590000D01*
X156985001Y-106590000D01*
X156985001Y-106934986D01*
X156995493Y-107037695D01*
X157010008Y-107081495D01*
X157012410Y-107151324D01*
X156976679Y-107211366D01*
X156914159Y-107242559D01*
X156892302Y-107244500D01*
X154453467Y-107244500D01*
X154322969Y-107270458D01*
X154322959Y-107270461D01*
X154200038Y-107321376D01*
X154200020Y-107321386D01*
X154089398Y-107395301D01*
X154089390Y-107395307D01*
X151896518Y-109588181D01*
X151835195Y-109621666D01*
X151808837Y-109624500D01*
X151549000Y-109624500D01*
X151481961Y-109604815D01*
X151436206Y-109552011D01*
X151425000Y-109500500D01*
X151425000Y-109370000D01*
X148835001Y-109370000D01*
X148835001Y-109500500D01*
X148815316Y-109567539D01*
X148762512Y-109613294D01*
X148711001Y-109624500D01*
X148669500Y-109624500D01*
X148602461Y-109604815D01*
X148556706Y-109552011D01*
X148545500Y-109500500D01*
X148545499Y-108831162D01*
X148565183Y-108764123D01*
X148581814Y-108743485D01*
X148623320Y-108701979D01*
X148684643Y-108668495D01*
X148754335Y-108673481D01*
X148810268Y-108715353D01*
X148834684Y-108780817D01*
X148835000Y-108789662D01*
X148835000Y-108870000D01*
X149880000Y-108870000D01*
X150380000Y-108870000D01*
X151424999Y-108870000D01*
X151424999Y-108625028D01*
X151424998Y-108625013D01*
X151414505Y-108522302D01*
X151359358Y-108355880D01*
X151359356Y-108355875D01*
X151267315Y-108206654D01*
X151143345Y-108082684D01*
X150994124Y-107990643D01*
X150994119Y-107990641D01*
X150827697Y-107935494D01*
X150827690Y-107935493D01*
X150724986Y-107925000D01*
X150380000Y-107925000D01*
X150380000Y-108870000D01*
X149880000Y-108870000D01*
X149880000Y-107925000D01*
X149535028Y-107925000D01*
X149535005Y-107925002D01*
X149517237Y-107926817D01*
X149448545Y-107914046D01*
X149397661Y-107866165D01*
X149380742Y-107798374D01*
X149383021Y-107779267D01*
X149390292Y-107742712D01*
X149395500Y-107716531D01*
X149395500Y-107583469D01*
X149395500Y-107081715D01*
X149415185Y-107014676D01*
X149467989Y-106968921D01*
X149511116Y-106957999D01*
X149511122Y-106957999D01*
X149553889Y-106955100D01*
X149738693Y-106909141D01*
X149909296Y-106824530D01*
X150057722Y-106705222D01*
X150177030Y-106556796D01*
X150261641Y-106386193D01*
X150307600Y-106201389D01*
X150310500Y-106158623D01*
X150310499Y-105256378D01*
X150307600Y-105213611D01*
X150261641Y-105028807D01*
X150220395Y-104945641D01*
X150177032Y-104858207D01*
X150177030Y-104858204D01*
X150057722Y-104709778D01*
X150057721Y-104709777D01*
X149988514Y-104654147D01*
X149948595Y-104596804D01*
X149946015Y-104526982D01*
X149981594Y-104466849D01*
X149988514Y-104460853D01*
X149997909Y-104453300D01*
X150057722Y-104405222D01*
X150177030Y-104256796D01*
X150177032Y-104256792D01*
X150229051Y-104151906D01*
X150276472Y-104100593D01*
X150340139Y-104083000D01*
X153485501Y-104083000D01*
X153552540Y-104102685D01*
X153598295Y-104155489D01*
X153609501Y-104207000D01*
X153609501Y-104865536D01*
X153610787Y-104880000D01*
X153620113Y-104984915D01*
X153676089Y-105180545D01*
X153676090Y-105180548D01*
X153676091Y-105180549D01*
X153770302Y-105360907D01*
X153798917Y-105396000D01*
X153898890Y-105518609D01*
X153974170Y-105579991D01*
X154056593Y-105647198D01*
X154236951Y-105741409D01*
X154432582Y-105797386D01*
X154551963Y-105808000D01*
X155668036Y-105807999D01*
X155787418Y-105797386D01*
X155970454Y-105745013D01*
X156985000Y-105745013D01*
X156985000Y-106090000D01*
X157930000Y-106090000D01*
X158430000Y-106090000D01*
X159374999Y-106090000D01*
X159374999Y-105745028D01*
X159374998Y-105745013D01*
X159364505Y-105642302D01*
X159309358Y-105475880D01*
X159309356Y-105475875D01*
X159217315Y-105326654D01*
X159093345Y-105202684D01*
X158944124Y-105110643D01*
X158944119Y-105110641D01*
X158777697Y-105055494D01*
X158777690Y-105055493D01*
X158674986Y-105045000D01*
X158430000Y-105045000D01*
X158430000Y-106090000D01*
X157930000Y-106090000D01*
X157930000Y-105045000D01*
X157685029Y-105045000D01*
X157685012Y-105045001D01*
X157582302Y-105055494D01*
X157415880Y-105110641D01*
X157415875Y-105110643D01*
X157266654Y-105202684D01*
X157142684Y-105326654D01*
X157050643Y-105475875D01*
X157050641Y-105475880D01*
X156995494Y-105642302D01*
X156995493Y-105642309D01*
X156985000Y-105745013D01*
X155970454Y-105745013D01*
X155983049Y-105741409D01*
X156163407Y-105647198D01*
X156321109Y-105518609D01*
X156449698Y-105360907D01*
X156543909Y-105180549D01*
X156599886Y-104984918D01*
X156610500Y-104865537D01*
X156610500Y-103857000D01*
X156610711Y-103856281D01*
X156610508Y-103855559D01*
X156620544Y-103822793D01*
X156630185Y-103789961D01*
X156630751Y-103789470D01*
X156630971Y-103788753D01*
X156657124Y-103766618D01*
X156682989Y-103744206D01*
X156683817Y-103744025D01*
X156684303Y-103743615D01*
X156687867Y-103743144D01*
X156734500Y-103733000D01*
X156860501Y-103733000D01*
X156927540Y-103752685D01*
G37*
%TD.AperFunction*%
%TA.AperFunction,Conductor*%
G36*
X193759538Y-101863935D02*
G01*
X193780180Y-101880569D01*
X194208181Y-102308570D01*
X194241666Y-102369893D01*
X194244500Y-102396251D01*
X194244500Y-102558836D01*
X194224815Y-102625875D01*
X194208181Y-102646517D01*
X193795307Y-103059390D01*
X193795304Y-103059394D01*
X193721383Y-103170024D01*
X193721378Y-103170034D01*
X193670459Y-103292963D01*
X193670457Y-103292971D01*
X193650418Y-103393716D01*
X193650418Y-103393717D01*
X193644500Y-103423467D01*
X193644500Y-103988071D01*
X193624815Y-104055110D01*
X193572011Y-104100865D01*
X193559505Y-104105777D01*
X193455666Y-104140186D01*
X193455663Y-104140187D01*
X193306342Y-104232289D01*
X193182289Y-104356342D01*
X193090187Y-104505663D01*
X193090185Y-104505668D01*
X193073010Y-104557500D01*
X193035001Y-104672203D01*
X193035001Y-104672204D01*
X193035000Y-104672204D01*
X193024500Y-104774983D01*
X193024500Y-105558836D01*
X193004815Y-105625875D01*
X192988181Y-105646517D01*
X192985310Y-105649388D01*
X192985304Y-105649395D01*
X192962101Y-105684120D01*
X192908488Y-105728925D01*
X192839163Y-105737631D01*
X192776136Y-105707475D01*
X192739418Y-105648032D01*
X192735000Y-105615228D01*
X192735000Y-105520000D01*
X191564000Y-105520000D01*
X191496961Y-105500315D01*
X191451206Y-105447511D01*
X191440000Y-105396000D01*
X191440000Y-105270000D01*
X191314000Y-105270000D01*
X191246961Y-105250315D01*
X191201206Y-105197511D01*
X191190000Y-105146000D01*
X191190000Y-105020000D01*
X191690000Y-105020000D01*
X192734999Y-105020000D01*
X192734999Y-104775028D01*
X192734998Y-104775013D01*
X192724505Y-104672302D01*
X192669358Y-104505880D01*
X192669356Y-104505875D01*
X192577315Y-104356654D01*
X192453345Y-104232684D01*
X192304124Y-104140643D01*
X192304119Y-104140641D01*
X192137697Y-104085494D01*
X192137690Y-104085493D01*
X192034986Y-104075000D01*
X191690000Y-104075000D01*
X191690000Y-105020000D01*
X191190000Y-105020000D01*
X191190000Y-104075000D01*
X191069500Y-104075000D01*
X191002461Y-104055315D01*
X190956706Y-104002511D01*
X190945500Y-103951000D01*
X190945500Y-103868250D01*
X190965185Y-103801211D01*
X191017989Y-103755456D01*
X191069500Y-103744250D01*
X191082536Y-103744250D01*
X191082537Y-103744250D01*
X191292493Y-103710996D01*
X191494662Y-103645307D01*
X191684066Y-103548801D01*
X191721753Y-103521420D01*
X191856036Y-103423859D01*
X191856038Y-103423856D01*
X191856042Y-103423854D01*
X192006354Y-103273542D01*
X192006356Y-103273538D01*
X192006359Y-103273536D01*
X192131298Y-103101570D01*
X192131297Y-103101570D01*
X192131301Y-103101566D01*
X192227807Y-102912162D01*
X192293496Y-102709993D01*
X192326750Y-102500037D01*
X192326750Y-102287463D01*
X192293496Y-102077507D01*
X192270445Y-102006566D01*
X192268451Y-101936727D01*
X192304531Y-101876894D01*
X192367232Y-101846066D01*
X192388377Y-101844250D01*
X193692499Y-101844250D01*
X193759538Y-101863935D01*
G37*
%TD.AperFunction*%
%TD*%
M02*
